<svg xmlns="http://www.w3.org/2000/svg" viewBox="0 0 231.37 279.34"><defs><style>.cls-1{fill:#64783f;}.cls-2{fill:#dbe68d;}.cls-3{fill:#e6f0a1;}.cls-4{fill:#536325;}.cls-5{fill:#f6eaba;}.cls-6{fill:#f8eead;}.cls-7{fill:#f8f9f7;}.cls-8{fill:#9f6757;}.cls-9{fill:#875053;}.cls-10{fill:#c38f5c;}</style></defs><title>avocado</title><g id="Layer_2" data-name="Layer 2"><g id="Layer_1-2" data-name="Layer 1"><g id="zJKF2x"><path class="cls-1" d="M162.17,274.72l-8.32,2.15-18,2.36-.06.11c-3.63-1.73-7.51-.89-11.29-1.09l-11.15-2.15-17.7-6-14.79-7.44-8.58-5.92c-2.32-2.74-5.51-4.3-8.44-6.22a4.69,4.69,0,0,0-3.69-3.48L55,241a24.65,24.65,0,0,0-5.46-5.93l-4.93-6.35-4.84-7.61L36,215.34,28.2,201a40.72,40.72,0,0,0-4.27-9.29,12.82,12.82,0,0,0-2.31-5.84Q18.77,178,15.93,170.1A24.94,24.94,0,0,0,13.54,162,43.56,43.56,0,0,0,6.69,144.3L4.8,138.19,1.5,120.57c1.1-2.77-2-4.83-1.43-7.28C1.72,105.91.5,98.5.71,91.11l0-1.41a27.08,27.08,0,0,0,.64-9.19l.19-1.29,1.41-9.94.22-1.23c.42-1.59.84-3.19,1.27-4.78,1.9-7,3.57-14,6.58-20.64l.95-2.05h0C15,35.41,17.52,29.9,21.54,25.34L26,19.59l2.51-1.74a28.31,28.31,0,0,0,11.82-9l5.25-3.12c2.68.09,4.07-2.2,6.12-3.29C55.41,3.91,58.6,1.49,62,1.13,65.4,2,68.55-1.32,72,.63a16.15,16.15,0,0,0,6.33.64L78.44,1l-.09.34a5,5,0,0,0,3.43.63l2.14.79,1.37.47,2,.74a100.9,100.9,0,0,1,14.89,8.82L108.35,18l5.72,5.8,5.57,5.74,6.13,7.2,4.46,4.83,1.66,2.63c1.05,3.4,2.86,6.19,6.22,7.75a25.8,25.8,0,0,0,5.54,5.93c1.59,3.4,2.75,7.17,7.15,8.09l5.81,5.64c1.42,2.43,3.62,4.12,5.62,6l4.8,5,7.41,7.56L179,94.79a9.09,9.09,0,0,0,3.75,3.52c2.24,2.93,4.44,5.91,7.48,8.1,6.39,8.54,14,16.15,19.81,25.12l1.2,1.62,3.42,4.93a25.5,25.5,0,0,0,4,7l3.53,7.41c1,2.52,1.45,5.32,3.17,7.56a.45.45,0,0,0,.18.58q2.17,7.94,4.34,15.87l1.47,18.6q-.51,5.67-1,11.32-2.91,9.19-5.81,18.39l-8.8,14.59-5.45,5.93-5.64,5.9q-3,2.63-6,5.26L190.19,262l-4,2.21q-3.76,2.08-7.55,4.15ZM12.76,79.13l-.2,1.53v-.13l-.08,1.62,0,3.44v-.07a2.89,2.89,0,0,1-.48.56l-.31,1.59v-.11L11.45,89l.06-.1,0,1.7.74,1.4.09-.12-.48,1.67-.12,4c-1.41,1.21-1.46,2.43,0,3.64l0-.14a13.26,13.26,0,0,0,.05,11.52l0-.09L11.62,114V114a2.25,2.25,0,0,0,.39,2.28l-.14-.12c-1.18.89-1.1,1.89-.24,2.94a6.93,6.93,0,0,0,.68,4.08c-.25,1.67-.38,3.32.94,4.68l-.11-.07c-1.37,1.41.34,2.69.16,4a6.93,6.93,0,0,0,2,7.61l-.22-.11c-.86,1.41.19,2.21,1,3.09v-.11c-.8,1.41.27,2.21,1,3.11v-.12c-.76,1.47-.07,2.2,1.33,2.56l1.35,1.54,0,0c.82,7.26,3.81,13.89,6,20.74a21.88,21.88,0,0,0,4.47,10.6,5.9,5.9,0,0,1,.5.7c.56,5.08,3.06,9.22,6.29,13a1.8,1.8,0,0,1,.43.79,9.87,9.87,0,0,0,1.86,5.49c2.87,4.77,5.57,9.65,8.72,14.24,5.08,7.43,10.41,14.7,17.69,20.23l3.46,2.42,2.67,1.8c3,3.84,7.2,6.16,10.82,9.22.57,3,2.55,3.84,5.33,3.44l-.11.06c1.17,1.62,2.06,3.75,4.74,2.66l-.1.08c.51.76,1.08,1.38,2.12.93l-.11,0c.49.78,1,1.4,2.1,1l-.12,0c.51.77,1.08,1.38,2.13,1l-.12,0c.63,1,1.42,1.43,2.52.67,1.66.66,3.1,2.13,5.13,1.4l-.09-.08c.55.48,1.06,1.09,1.93.66l1.61.34c1.42,1.64,3,2.8,5.37,2.16,2.8,2,6.1,1.81,9.29,2.09a3.85,3.85,0,0,0,4.67.88l-.12.14c.88.59,1.58.13,2.26-.39l.66-.44,1.49.06c.16.16.33.32.48.49,2.56,2.24,5,1.5,7.4-.29l2.43,0a1.64,1.64,0,0,0,2.5-.07c.92.67,1.59.11,2.25-.46l-.12,0c.93.64,1.63.09,2.32-.47h-.12l1.51.2-.11-.13c.89.73,1.6.31,2.26-.37l-.07-.07c.87.75,1.61.32,2.33-.26L167,259.65c8-.91,13.85-5.74,19.79-10.49l2.4-1.64c1.47.32,2.23-.27,2.29-1.77l1.67-1.28c.56.24.8.05.72-.55.51-1,.49-2.29,1.83-2.7,5.75-1.79,8.65-6.46,11.37-11.31l1.56-2.66c1.61-1.22,3.74-2.13,2.74-4.83l.07.13a2.32,2.32,0,0,0,1.12-2.43l.27.11.55-1.81,0,.1c.94-.69,2.21-1.19,1.66-2.77l-.26.08c1.51-.58,1.71-1.51.76-2.76,1-.62,1.36-1.41.63-2.47.9-2.37,2.52-4.65,1-7.34l-.13.07.19-1.49v.1l.18-1.5v.09c.07-.5.13-1,.19-1.5v.09l.19-1.5,0,.11c.07-.51.13-1,.2-1.51l0,.1.48-8.22c1.67-2.13,1.52-4.15-.38-6.06.69-.86.15-1.52-.37-2.18,1.26-2.55.32-4.66-1.35-6.62l0,.08.27-1.52-6.39-15.19c1.1-1,.57-2,0-3.1-7-14.1-16.87-26.16-27.17-37.9a5,5,0,0,0-3.82-2l-2.4-3.13c0-.33.16-.78,0-1-6.77-7.42-13.58-14.8-20.34-22.22A3.51,3.51,0,0,0,153,85.88c-6-4.93-10.12-11.53-15-17.48.34-3.81-3.54-4.42-5.22-6.73-7.17-9.82-14.76-19.33-22.17-29-1.73-2.26-3.51-4.41-6.44-5.15-3.6-2-5.27-6.22-9.09-8,.46-2.54-.93-2.43-2.65-1.85l.12-.09c-1.91-2.92-4.39-4.64-8.06-3.91-.83-1.3-1.71-2.48-3.43-1.16-.61-1-1.37-1.33-2.41-.63L77,11.84c-12.51-2-24,.32-34.36,7.89l-1.91,1c-3.47-2.25-3.51,1.88-5,3-2.61,1.86-5.64,3.84-5.55,7.8l-1.29,1.18c-1.64,1.22-3.83,2.12-2.82,4.87L26,37.4c-.91.7-2.14,1.2-1.69,2.73l0-.09a1.66,1.66,0,0,0-.71,2.44l-.34,1.91a.72.72,0,0,0-.35.59c-4.22,7.17-7.07,14.77-7.46,23.17l0-.06-.21,1.49v-.11L15,71v-.09a1.08,1.08,0,0,0-.18,1.49l-.16-.1-.89,1.08L13.26,75V75l.05,1.69a1.53,1.53,0,0,1,.31.52,5.91,5.91,0,0,1-.52.48l-.34,1.63Z"/><path class="cls-2" d="M71.92,239.33l-2.67-1.8c1.33-1.32.58-2.32-.44-3.37a169.73,169.73,0,0,1-15.25-18c-12.19-16.55-20.35-35-28.33-53.74-1.87-4.36-2-9.45-5.45-13.14l0,0a23,23,0,0,0-3.32-11.22,20.81,20.81,0,0,0-3.31-10.39l.12.07c1.45-1.92.31-3.31-.95-4.68a6.93,6.93,0,0,1-.68-4.08c1.17-.89,1.37-1.86.24-2.94l.14.12c.57-.88.17-1.59-.39-2.28V114l.15-1.49,0,.09a15.75,15.75,0,0,0-.05-11.52l0,.14c1-1.21.75-2.42,0-3.64l.12-4,.48-1.67-.09.12c.59-.81.26-1.53-.22-2.24a3.67,3.67,0,0,0-.49-.86l-.06.1c.06-.49.13-1,.2-1.48l0,.11a6.07,6.07,0,0,0,.59-.65l.19-1.5v.07c2.53-2.07,2.81-4.44.92-7.08a2.49,2.49,0,0,1-.26-.87,5.91,5.91,0,0,0,.52-.48c1.77-1.32,3-2.76,1.05-4.89l.16.1L15,70.88V71c.07-.5.13-1,.2-1.5v.11l.21-1.49,0,.06a4.43,4.43,0,0,0,2.28-3c1.1-6.37,3.9-12.2,5.77-18.32.15-.5-.38-1.2-.59-1.81a.72.72,0,0,1,.35-.59,14.93,14.93,0,0,0,1.67-1.81C30.83,33.83,36.59,24.91,46,19.36A80,80,0,0,1,76.2,12.73,1.68,1.68,0,0,0,79,12.46l0,.15c1.09,2.22,2.11,4.68,4.85,1.46l-.08,0c.52.77,1.11,1.38,2.16.94l-.15,0,1.43.37a.36.36,0,0,1,.46.24A9.68,9.68,0,0,0,91,19.23a73.58,73.58,0,0,1,18.88,17.43C121.12,51.1,132,65.84,144.21,79.47c5.42,6,10.89,12,16.51,17.88,10.09,10.49,20.45,20.72,29.66,32.06,6.1,7.5,10.65,16.06,16.81,23.49a1.89,1.89,0,0,1,.39.79c0,4.45,3.06,7.78,4.25,11.81,1.09,3.69,1.41,7.77,4.59,10.56h0c-1.74,3.15-.66,5.86,1.3,8.43l.2.17-.07.25c-.95,3.82-3.55,7.66.17,11.42l0-.1c-.07.5-.13,1-.2,1.51l0-.11c-.06.5-.13,1-.19,1.5V199c-.06.5-.12,1-.19,1.5v-.09l-.18,1.5v-.1c-.07.5-.13,1-.19,1.49l.12-.07c-2.3,2.2-2.38,4.84-1.5,7.67l-.22-.07-.28,1.51,0-.09c-.76.53-1.35,1.12-.91,2.16h.17a4.58,4.58,0,0,0-2.73,2.73c-5.9,12.88-15.35,22.45-27.15,30.1-9.65,6.25-19.4,12-30.89,14.15-1.35.25-3.35.57-3.72,2.66l-1.69.81.12,0a3,3,0,0,1-.58-.43c-1.21-.69-2.46-1.62-3.18.55l-1,.41-2.43,0c-2.53-1.59-4.93.27-7.4.29-.15-.17-.32-.33-.48-.49-.43-1.75-1-.11-1.49-.06l-.66.44c-.8-.16-1.65-.56-2.26.39l.12-.14-1.09-.94-1.7-.52.12.08-1.54-.2.09.24c-2.48-2.91-5.89-2.07-9-2.21-1.79-1.54-3.74-2.49-6.16-1.58l-1.61-.34a1.56,1.56,0,0,0-1.93-.66l.09.08c-4.88-3-9.4-6.81-15.51-7.14-3.73-4.56-9.1-7-13.68-10.49C75.61,241,74.84,237.94,71.92,239.33Zm85.6-127.84C143.12,92.78,130,78.29,115.33,65.3c-11.76-10.43-23.68-20.95-38.51-27-6.67-2.74-13.7-4.07-20.86-1.34C46.23,40.62,41.11,48.24,40.09,58,38,78.49,36.43,99,35,119.54a158.2,158.2,0,0,0,.83,29.26c2.4,21,13.59,38.33,24.39,55.51,9.1,14.47,21.43,26.6,34.19,37.95,13.38,11.9,28.73,19.06,47.4,15.92,19.27-3.24,33.82-13.87,45.25-29.1,8.74-11.65,11-24.85,8.11-39.09-1.58-7.82-6.09-14.59-7.36-22.54a64.09,64.09,0,0,0-6.32-18.28C174.17,134.59,164.71,121.39,157.52,111.49Z"/><path class="cls-3" d="M207.19,152.9c-6.16-7.43-10.71-16-16.81-23.49-9.21-11.34-19.57-21.57-29.66-32.06-5.62-5.85-11.09-11.85-16.51-17.88C132,65.84,121.12,51.1,109.88,36.66A73.58,73.58,0,0,0,91,19.23a9.73,9.73,0,0,1-3.34-3.59l5,2-.12.09,2.65,1.85c3.82,1.76,5.49,6,9.09,8,6.75,7.81,13,16,19.15,24.28,4.37,5.94,8.69,12,14.68,16.58C142.92,74.35,147,81,153,85.88c3.2,6.13,9,10.09,13.29,15.28,2.89,3.47,6.1,7.24,10.52,9.28l2.4,3.13c6.47,8.54,14.49,15.8,20.31,24.88A74.21,74.21,0,0,1,207.19,152.9Z"/><path class="cls-3" d="M19.78,149.3c3.44,3.69,3.58,8.78,5.45,13.14,8,18.7,16.14,37.19,28.33,53.74a169.73,169.73,0,0,0,15.25,18c1,1.05,1.77,2.05.44,3.37l-3.46-2.42a53.47,53.47,0,0,0-3.1-4.45,192.36,192.36,0,0,1-19.48-26.87c-1.76-3-2.94-6.33-5.69-8.64a1.8,1.8,0,0,0-.43-.79c-1.45-4.66-3.06-9.23-6.29-13a5.9,5.9,0,0,0-.5-.7c-.22-4.07-2-7.47-4.47-10.6C23.59,163.19,20.6,156.56,19.78,149.3Z"/><path class="cls-3" d="M150,264.07c.37-2.09,2.37-2.41,3.72-2.66,11.49-2.17,21.24-7.9,30.89-14.15,11.8-7.65,21.25-17.22,27.15-30.1a4.58,4.58,0,0,1,2.73-2.73c.12.47.23.93.34,1.4l.26-.08c-1.5.35-1.52,1.59-1.66,2.77l0-.1c-.54.5-.92,1-.55,1.81l-.27-.11a2.75,2.75,0,0,0-1.12,2.43l-.07-.13c-1.28,1.41-2.56,2.8-2.74,4.83l-1.56,2.66-11.37,11.31c-1.34.41-1.32,1.73-1.83,2.7a1.41,1.41,0,0,0-.72.55l-1.67,1.28-2.29,1.77-2.4,1.64L167,259.65l-10.64,4.14c-.85-.59-1.67-.81-2.33.26l.07.07c-.9-.77-1.63-.5-2.26.37l.11.13c-.4-.86-1-.43-1.51-.2h.12C150.36,264.31,150.16,264.19,150,264.07Z"/><path class="cls-4" d="M207.19,152.9a74.21,74.21,0,0,0-7.63-14.45c-5.82-9.08-13.84-16.34-20.31-24.88a5,5,0,0,1,3.82,2c10.3,11.74,20.16,23.8,27.17,37.9.55,1.11,1.08,2.08,0,3.1l-2.64-2.92A1.89,1.89,0,0,0,207.19,152.9Z"/><path class="cls-5" d="M76.2,12.73A80,80,0,0,0,46,19.36l-3.38.37C53,12.16,64.51,9.88,77,11.84Z"/><path class="cls-4" d="M37.52,195.15c2.75,2.31,3.93,5.68,5.69,8.64a192.36,192.36,0,0,0,19.48,26.87,53.47,53.47,0,0,1,3.1,4.45c-7.28-5.53-12.61-12.8-17.69-20.23-3.15-4.59-5.85-9.47-8.72-14.24A9.87,9.87,0,0,1,37.52,195.15Z"/><path class="cls-4" d="M138.07,68.4c-6-4.55-10.31-10.64-14.68-16.58-6.12-8.31-12.4-16.47-19.15-24.28,2.93.74,4.71,2.89,6.44,5.15,7.41,9.65,15,19.16,22.17,29C134.53,64,138.41,64.59,138.07,68.4Z"/><path class="cls-4" d="M176.85,110.44c-4.42-2-7.63-5.81-10.52-9.28C162,96,156.24,92,153,85.88a3.51,3.51,0,0,1,3.48,1.39c6.76,7.42,13.57,14.8,20.34,22.22C177,109.66,176.86,110.11,176.85,110.44Z"/><path class="cls-3" d="M42.66,19.73,46,19.36c-9.45,5.55-15.21,14.47-21.16,23.22a14.93,14.93,0,0,1-1.67,1.81c.12-.64.23-1.27.34-1.91.44-.76,1.35-1.37.71-2.44l0,.09A2.56,2.56,0,0,0,26,37.4l.09.12c1.35-1.38,2.62-2.82,2.82-4.87l1.29-1.18c3.46-3.65,6.59-7.62,10.57-10.76Z"/><path class="cls-3" d="M22.86,45c.21.61.74,1.31.59,1.81-1.87,6.12-4.67,12-5.77,18.32a4.43,4.43,0,0,1-2.28,3C15.79,59.75,18.64,52.15,22.86,45Z"/><path class="cls-3" d="M207.58,153.69l2.64,2.92,6.39,15.19-.27,1.52,0-.08.06,2.82c-3.18-2.79-3.5-6.87-4.59-10.56C210.64,161.47,207.55,158.14,207.58,153.69Z"/><path class="cls-3" d="M71.92,239.33c2.92-1.39,3.69,1.71,5.14,2.81,4.58,3.47,10,5.93,13.68,10.49l0,.14L88,252.05l.11-.06a16.28,16.28,0,0,0-5.33-3.44C79.12,245.49,74.87,243.17,71.92,239.33Z"/><path class="cls-4" d="M167,259.65l19.79-10.49C180.87,253.91,175,258.74,167,259.65Z"/><path class="cls-3" d="M90.74,252.63c6.11.33,10.63,4.13,15.51,7.14-2,.73-3.47-.74-5.13-1.4a2.69,2.69,0,0,0-2.52-.67l.12,0c-.61-.55-1.13-1.29-2.13-1l.12,0c-.63-.49-1-1.42-2.1-1l.11,0c-.55-.69-1.11-1.32-2.12-.93l.1-.08-2-1.94Z"/><path class="cls-4" d="M40.75,20.71c-4,3.14-7.11,7.11-10.57,10.76-.09-4,2.94-5.94,5.55-7.8C37.24,22.59,37.28,18.46,40.75,20.71Z"/><path class="cls-3" d="M11.67,101.11a15.75,15.75,0,0,1,.05,11.52A13.26,13.26,0,0,1,11.67,101.11Z"/><path class="cls-4" d="M195.72,241.22l11.37-11.31C204.37,234.76,201.47,239.43,195.72,241.22Z"/><path class="cls-3" d="M218,196.32c-3.72-3.76-1.12-7.6-.17-11.42.22,1.07.43,2.13.65,3.2Z"/><path class="cls-4" d="M30.8,181.34c3.23,3.79,4.84,8.36,6.29,13C33.86,190.56,31.36,186.42,30.8,181.34Z"/><path class="cls-6" d="M115.86,262.27c3.16.14,6.57-.7,9,2.21a2,2,0,0,0-.55.46c-3.19-.28-6.49-.05-9.29-2.09l.4-.28Z"/><path class="cls-3" d="M16.44,138.13a23,23,0,0,1,3.32,11.22c-.46-.51-.91-1-1.36-1.54l-1.33-2.56v.12c.55-1.33-.28-2.2-1-3.11v.11a2.37,2.37,0,0,0-1-3.09l.21.11c.1-.44.19-.88.29-1.32Z"/><path class="cls-3" d="M13.13,127.74a20.81,20.81,0,0,1,3.31,10.39l-.88-.06-2.27-6.29C13.47,130.43,11.76,129.15,13.13,127.74Z"/><path class="cls-4" d="M28.55,17.85c.18-.28.37-.55.58-.82l9.5-7.38,1.74-.84A28.31,28.31,0,0,1,28.55,17.85Z"/><path class="cls-4" d="M143.65,57.83l1.46,1.26.6.83,2.76,3.2,2,1.95.82.67-.45.18C146.4,65,145.24,61.23,143.65,57.83Z"/><path class="cls-4" d="M25.83,170c2.44,3.13,4.25,6.53,4.47,10.6A21.88,21.88,0,0,1,25.83,170Z"/><path class="cls-3" d="M215.64,210.93c-.88-2.83-.8-5.47,1.5-7.67,1.55,2.69-.07,5-1,7.34A2.62,2.62,0,0,0,215.64,210.93Z"/><path class="cls-4" d="M92.62,17.62l-5-2a.35.35,0,0,0-.46-.25L85.77,15l.15,0-1.38-1.19,0-.1C88.23,13,90.71,14.7,92.62,17.62Z"/><path class="cls-4" d="M133.8,265.68c2.47,0,4.87-1.88,7.4-.29C138.8,267.18,136.36,267.92,133.8,265.68Z"/><path class="cls-3" d="M115.86,262.27l-.39.3-.4.28c-2.33.64-3.95-.52-5.37-2.16C112.12,259.78,114.07,260.73,115.86,262.27Z"/><path class="cls-3" d="M13.36,78.51c1.89,2.64,1.61,5-.92,7.08,0-1.14,0-2.29,0-3.44,0-.54.06-1.08.08-1.62v.13c.07-.51.13-1,.2-1.53v.14A6.26,6.26,0,0,0,13.36,78.51Z"/><path class="cls-4" d="M13.29,131.78l2.27,6.29c-.1.44-.19.88-.29,1.32A6.94,6.94,0,0,1,13.29,131.78Z"/><path class="cls-4" d="M82.74,248.55A16.28,16.28,0,0,1,88.07,252C85.29,252.39,83.31,251.57,82.74,248.55Z"/><path class="cls-4" d="M131.89,44.15Q135,48,138.11,51.9C134.75,50.34,132.94,47.55,131.89,44.15Z"/><path class="cls-4" d="M218.46,188.1c-.22-1.07-.43-2.13-.65-3.2l.07-.25-.2-.17c.08-.82.17-1.63.25-2.44h.15C220,184,220.13,186,218.46,188.1Z"/><path class="cls-4" d="M216.42,176.06l-.06-2.82c1.67,2,2.61,4.07,1.35,6.62h-.1l-1.23-3.8Z"/><path class="cls-3" d="M14.67,72.27c2,2.13.72,3.57-1.05,4.89a1.53,1.53,0,0,0-.31-.52c0-.57,0-1.13-.05-1.69V75a1.43,1.43,0,0,0,.52-1.67Z"/><path class="cls-4" d="M28.89,32.65c-.2,2.05-1.47,3.49-2.82,4.87C25.06,34.77,27.25,33.87,28.89,32.65Z"/><path class="cls-4" d="M90.7,252.77l2,1.94c-2.68,1.09-3.57-1-4.74-2.66Z"/><path class="cls-4" d="M208.65,227.25c.18-2,1.46-3.42,2.74-4.83C212.39,225.12,210.26,226,208.65,227.25Z"/><path class="cls-3" d="M12.3,123.13c1.26,1.37,2.4,2.76.95,4.68C11.92,126.45,12.05,124.8,12.3,123.13Z"/><path class="cls-4" d="M124.36,264.94a2,2,0,0,1,.55-.46l-.08-.24a1.1,1.1,0,0,0,1.53.2l-.12-.08,1.7.52,1.09.94A3.85,3.85,0,0,1,124.36,264.94Z"/><path class="cls-4" d="M95.15,19.56,92.5,17.71C94.22,17.13,95.61,17,95.15,19.56Z"/><path class="cls-3" d="M11.71,97.61c.75,1.22,1,2.43,0,3.64C10.25,100,10.3,98.82,11.71,97.61Z"/><path class="cls-4" d="M81.13,12.55c1.72-1.32,2.6-.14,3.43,1.16l0,.1q-.37.13-.78.24l.08,0-2.72-1.42Z"/><path class="cls-3" d="M76.2,12.73l.82-.89,1.7.08a1.57,1.57,0,0,0,.29.54A1.68,1.68,0,0,1,76.2,12.73Z"/><path class="cls-4" d="M214.78,215.83c-.11-.47-.22-.93-.34-1.4h-.17l1.17-1.38h.1C216.49,214.32,216.29,215.25,214.78,215.83Z"/><path class="cls-3" d="M11.86,116.11c1.13,1.08.93,2-.24,2.94C10.76,118,10.68,117,11.86,116.11Z"/><path class="cls-4" d="M215.64,210.93a2.62,2.62,0,0,1,.53-.33c.73,1.06.36,1.85-.63,2.47h-.1a6.48,6.48,0,0,1-.26-.78l0,.09c.09-.5.19-1,.28-1.51Z"/><path class="cls-4" d="M79,12.46a1.57,1.57,0,0,1-.29-.54c1-.7,1.8-.32,2.41.63v.1l-2.13,0Z"/><path class="cls-4" d="M15.06,139.28a2.37,2.37,0,0,1,1,3.09C15.25,141.49,14.2,140.69,15.06,139.28Z"/><path class="cls-4" d="M16,142.26c.74.91,1.57,1.78,1,3.11C16.31,144.47,15.24,143.67,16,142.26Z"/><path class="cls-4" d="M17.07,145.25l1.33,2.56C17,147.45,16.31,146.72,17.07,145.25Z"/><path class="cls-4" d="M189.21,247.52l2.29-1.77C191.44,247.25,190.68,247.84,189.21,247.52Z"/><path class="cls-4" d="M98.6,257.7a2.69,2.69,0,0,1,2.52.67C100,259.13,99.23,258.71,98.6,257.7Z"/><path class="cls-4" d="M26,37.4a2.56,2.56,0,0,1-1.69,2.73C23.84,38.6,25.07,38.1,26,37.4Z"/><path class="cls-4" d="M213.38,218.52c.14-1.18.16-2.42,1.66-2.77C215.59,217.33,214.32,217.83,213.38,218.52Z"/><path class="cls-4" d="M217.71,179.86c.52.66,1.06,1.32.37,2.18h-.15c-.1-.73-.21-1.46-.32-2.19Z"/><path class="cls-3" d="M106.16,259.69a1.56,1.56,0,0,1,1.93.66C107.22,260.78,106.71,260.17,106.16,259.69Z"/><path class="cls-4" d="M96.59,256.73c1-.28,1.52.46,2.13,1C97.67,258.11,97.1,257.5,96.59,256.73Z"/><path class="cls-4" d="M94.61,255.74c1.06-.39,1.47.54,2.1,1C95.66,257.14,95.1,256.52,94.61,255.74Z"/><path class="cls-4" d="M92.6,254.79c1-.39,1.57.24,2.12.93C93.68,256.17,93.11,255.55,92.6,254.79Z"/><path class="cls-4" d="M128.91,266c.61-.95,1.46-.55,2.26-.39C130.49,266.09,129.79,266.55,128.91,266Z"/><path class="cls-6" d="M131.83,265.13c.5-.05,1.06-1.69,1.49.06Z"/><path class="cls-4" d="M24.26,40c.64,1.07-.27,1.68-.71,2.44A1.66,1.66,0,0,1,24.26,40Z"/><path class="cls-3" d="M12,89.8c.48.71.81,1.43.22,2.24l-.74-1.4C11.66,90.37,11.84,90.09,12,89.8Z"/><path class="cls-4" d="M143.63,265.37l1-.41,1.52.15v.18A1.63,1.63,0,0,1,143.63,265.37Z"/><path class="cls-4" d="M147.8,264.41a3,3,0,0,0,.58.43c-.66.57-1.33,1.13-2.25.46v-.19Z"/><path class="cls-4" d="M150,264.07c.21.12.41.24.63.34-.69.56-1.39,1.11-2.32.47Z"/><path class="cls-4" d="M151.86,264.49c.63-.87,1.36-1.14,2.26-.37C153.46,264.8,152.75,265.22,151.86,264.49Z"/><path class="cls-4" d="M154.05,264.05c.66-1.07,1.48-.85,2.33-.26C155.66,264.37,154.92,264.8,154.05,264.05Z"/><path class="cls-4" d="M211.46,222.55a2.75,2.75,0,0,1,1.12-2.43A2.32,2.32,0,0,1,211.46,222.55Z"/><path class="cls-3" d="M11.61,114c.56.69,1,1.4.39,2.28A2.25,2.25,0,0,1,11.61,114Z"/><path class="cls-3" d="M11.77,112.54,11.62,114Z"/><path class="cls-3" d="M15.21,69.47c-.07.5-.13,1-.2,1.5C15.08,70.47,15.14,70,15.21,69.47Z"/><path class="cls-3" d="M15.42,68.09l-.21,1.49Z"/><path class="cls-4" d="M212.85,220.23c-.37-.77,0-1.31.55-1.81Z"/><path class="cls-4" d="M150.46,264.42c.54-.23,1.11-.66,1.51.2Z"/><path class="cls-3" d="M15,70.88l-.18,1.49A1.08,1.08,0,0,1,15,70.88Z"/><path class="cls-4" d="M13.78,73.35A1.43,1.43,0,0,1,13.26,75C13.43,74.46,13.6,73.9,13.78,73.35Z"/><path class="cls-4" d="M193.17,244.47a1.41,1.41,0,0,1,.72-.55C194,244.52,193.73,244.71,193.17,244.47Z"/><path class="cls-3" d="M12.31,91.92l-.48,1.67Z"/><path class="cls-4" d="M12,89.8c-.16.29-.34.57-.52.84l0-1.7A3.67,3.67,0,0,1,12,89.8Z"/><path class="cls-4" d="M11.65,87.56c-.07.49-.14,1-.2,1.48C11.51,88.55,11.58,88.05,11.65,87.56Z"/><path class="cls-3" d="M12.45,85.52,12.26,87a6.37,6.37,0,0,1-.29-.94A2.89,2.89,0,0,0,12.45,85.52Z"/><path class="cls-3" d="M217,203.33c.06-.49.12-1,.19-1.49C217.14,202.34,217.08,202.84,217,203.33Z"/><path class="cls-3" d="M217.21,201.94l.18-1.5Z"/><path class="cls-3" d="M217.38,200.53c.07-.5.13-1,.19-1.5C217.51,199.53,217.45,200,217.38,200.53Z"/><path class="cls-4" d="M12,86.08a6.37,6.37,0,0,0,.29.94,6.07,6.07,0,0,1-.59.65Z"/><path class="cls-3" d="M217.56,199.12c.06-.5.13-1,.19-1.5C217.69,198.12,217.62,198.62,217.56,199.12Z"/><path class="cls-4" d="M13.26,75c0,.56,0,1.12.05,1.69C13.29,76.08,13.28,75.51,13.26,75Z"/><path class="cls-3" d="M217.73,197.73c.07-.51.13-1,.2-1.51C217.86,196.72,217.8,197.22,217.73,197.73Z"/><path class="cls-4" d="M12.56,80.53c0,.54-.05,1.08-.08,1.62C12.51,81.61,12.54,81.07,12.56,80.53Z"/><path class="cls-4" d="M13.36,78.51a6.26,6.26,0,0,1-.6.76c.11-.54.23-1.09.34-1.63A2.49,2.49,0,0,0,13.36,78.51Z"/><path class="cls-4" d="M12.76,79.13c-.07.51-.13,1-.2,1.53C12.63,80.15,12.69,79.64,12.76,79.13Z"/><path class="cls-4" d="M216.34,173.32l.27-1.52Z"/><path class="cls-7" d="M83.92,2.71l1.37.47Z"/><path class="cls-6" d="M157.52,111.49c7.19,9.9,16.65,23.1,23.94,37.68a64.09,64.09,0,0,1,6.32,18.28c1.27,8,5.78,14.72,7.36,22.54,2.88,14.24.63,27.44-8.11,39.09-11.43,15.23-26,25.86-45.25,29.1-18.67,3.14-34-4-47.4-15.92-12.76-11.35-25.09-23.48-34.19-37.95-10.8-17.18-22-34.47-24.39-55.51A158.2,158.2,0,0,1,35,119.54C36.43,99,38,78.49,40.09,58c1-9.8,6.14-17.42,15.87-21.13,7.16-2.73,14.19-1.4,20.86,1.34,14.83,6.1,26.75,16.62,38.51,27.05C130,78.29,143.12,92.78,157.52,111.49Zm-24,109.68,1.19.06c2,1.81,4.2.58,6.12,0,14.59-4.55,22.44-15.08,25.44-29.57.56-2.71,2.48-5.75-.23-8.49,1.64-3.57.7-7.25-.38-10.53-6.57-20-18.74-35.49-37.22-45.84-1.17-.66-2.39-1.29-3.63-.1l.06,0c-.82-1.33-1.67-2.58-3.46-1.28h0c-1.2-1.27-1.67-3.25-4-3.36-12.3-.56-22.91,2.38-29.6,13.82-.9,1.55-2.46,2.87-1.2,4.92a.44.44,0,0,1-.32.47c-4,.55-4.65,2.46-2.34,5.62l-.06-.09-.33,1.47,0,0c-4,3.63-5.49,19.14-2.38,24.65l0,0c-3.55,3.46.08,6.55.87,9.48,5,18.34,17.14,30.35,34.29,37.73,1.12.48,1.87-.23,2.68-.79l.76.61a13.48,13.48,0,0,0,12.69,1.61A3.06,3.06,0,0,1,133.53,221.17Zm-82.74-84.3c-.72,4.41.66,8.37,2.47,12.23,0-4.25-.12-8.48-2.44-12.23l-.06-1.28-.45,0ZM123.1,238.56c9.23,5,25.9,2.09,33.51-6.26C145.28,236.75,134.31,236,123.1,238.56ZM61.47,60.77c6.3-3.1,10.6-.85,14.63,3.59,2.05,2.26,4.73,4.47,8.55,3.94C77.42,56.88,66.44,53,61.47,60.77Zm60.11,32a54.4,54.4,0,0,0-10.5-11C113.86,87,117.7,89.93,121.58,92.81ZM54.38,154a1.12,1.12,0,0,0,.15.41s.23-.07.36-.11a1.35,1.35,0,0,0-.16-.41S54.5,153.93,54.38,154Zm104.2,78.2-.26.35.3.22.26-.35Z"/><path class="cls-3" d="M217.61,179.85c.11.73.22,1.46.32,2.19-.08.81-.17,1.62-.25,2.44-2-2.57-3-5.28-1.3-8.43Z"/><path class="cls-3" d="M79,12.61l2.13,0,2.72,1.42C81.1,17.29,80.08,14.83,79,12.61Z"/><path class="cls-3" d="M147.8,264.41l-1.66.7-1.52-.15C145.34,262.79,146.59,263.72,147.8,264.41Z"/><path class="cls-3" d="M215.18,212.28a6.48,6.48,0,0,0,.26.78l-1.17,1.38C213.83,213.4,214.42,212.81,215.18,212.28Z"/><path class="cls-3" d="M83.76,14.05q.4-.11.78-.24L85.92,15C84.87,15.43,84.28,14.82,83.76,14.05Z"/><path class="cls-3" d="M85.77,15l1.43.37Z"/><path class="cls-3" d="M215.42,210.86c-.09.51-.19,1-.28,1.51C215.23,211.87,215.33,211.37,215.42,210.86Z"/><path class="cls-6" d="M127.94,264.88l-1.7-.52Z"/><path class="cls-6" d="M126.36,264.44a1.1,1.1,0,0,1-1.53-.2Z"/><path class="cls-8" d="M119.91,219.9l-.76-.61c-3.08-1.54-6.26-2.9-9.21-4.66-11.54-6.91-20.28-16-24.75-29.2-1.41-4.17-1.36-8.78-3.88-12.56l0,0c1.17-7.68.29-15.57,2.25-23.18,1,.23.82-.2.45-.76l0,.07c2.26-2.47,5-4.75,3.56-8.73a17.08,17.08,0,0,0,3.9-5.77,95.59,95.59,0,0,1,14-9.22c5.37-2.16,10.71.24,16.07.12h0c1.08.63,1.84,2.1,3.46,1.28l-.06,0c6.5,4.53,14.25,7.44,18.77,14.53a3.05,3.05,0,0,0,1.36,3c4.21,3.36,6.71,8,9.68,12.3,2.73,4,3.75,8.81,6.91,12.47l.09-.05c-.79,1.36.21,2.16,1,3l.08,0c-.79,2.08.05,3.72,1.42,5.22l.08,0c-1.34,1.76-.48,3.13.8,4.42l0,0a2.51,2.51,0,0,0,.2,3.68l0-.08-.2,1.5,0-.09L164.8,188l0-.07-.19,1.49v-.09l-.18,1.49,0-.08-.18,1.48,0-.06c-.88.61-1.31,1.35-.7,2.4-2.9,4.31-3.4,9.87-7.14,13.75-3-.66-3.31,2.36-4.69,3.67-3.86,3.63-9.26,4.35-13.23,7.62l.05.07c-.88-.65-1.58-.21-2.25.39l.06,0c-.94-.65-1.65-.18-2.3.5v.1c-.68-.74-1.34-.45-2,0C128,220.09,124.07,218.51,119.91,219.9Zm27.26-56.31h0c-1-2.06.46-5.83-3.85-5.66-.47,0-.73-.05-.91-.71-2.14-7.63-5-10.1-11.92-10.57a13,13,0,0,1-2.35-.73c-4.74-1.25-8.85-4.6-14.15-4.1-1.4.13-2.55,0-3.21,1.57s.11,2.24,1.24,3.24c4.28,3.84,8.47,7.67,15.17,6.3-3.21,5.12-5.49,5.4-9.13,1.68-2.57-2.63-6.23-2.94-9.47-4-1.95-.66-3.74.85-4.53,2.4s1.23,2.07,2.24,2.68c1.9,1.15,2.41,3.36,3.87,4.89s-.77,3.33-2.61,4.25c-.91-1,1.23-2.74-1.09-3.49-.35.44-1,.87-1.09,1.42-.4,1.66-4.13.53-2.83,3,.73,1.4,3,1.27,4.56.79,3.41-1,5.85,1.19,8.2,2.7,3.05,2,4.63,1,5.61-1.76,1.27-3.51,3.53-5.41,7.22-5.64h0c.63,4.19,6.56,3.76,7.21,8.17.07.47,4.21,1.23,4.27-.09.27-5.51,3.95-3.13,6.37-3.05a1.88,1.88,0,0,0,2.16-1.33C148.63,164.49,148.74,163.62,147.17,163.59Zm-27.25,45.82c3.69.23,7.86.21,9.77,2.86,2.84,3.91,5.32,1.64,8.08.94.73-.19,1.31-1.09.73-1.46-3.8-2.42-.16-3.16,1-4.34s.54-2.47.54-3.76c0-2.11-1.23-4.18-.38-6.27,2.09-5.16,1.46-7-3.18-8.94A2.41,2.41,0,0,1,135.2,187c-.76-3.14-.72-3.15-4.47-1.39,2.52-3.55-.27-5.67-1.74-8-.91-1.43-2.9-3.52-4.32-2.11s-.52,3.54,2.36,2.76c.25,1.06.76,2.67-.68,2.69-1.25,0-3.42.24-3.9-1.37-.84-2.84-4-3.07-5.31-5.4a2.77,2.77,0,0,0-3.57-1c-1.61.77-.79,2.11-1,3.35-.73,5.48,3.31,8.42,6,12.21-2.31-1.21-5.56-1.15-6.56-3.56-1.79-4.33-6.22-6-8.66-9.51a1.7,1.7,0,0,0-2.63-.25c-.72.56-1.25,1.4-.66,2.14,3.74,4.76,3.44,11.79,9,15.62,1.43,1,3.57,2.58,2.67,4.88-1,2.64,1.06,4.09,1.68,6.08.38,1.19,1.1,2.27,2.51,1.78s2.2-1.73,1.28-3.07c-1.31-1.93-.08-2.5,1.32-2.64,2.27-.24,4.7-.56,6.76.73,1.34.85,3.56,1.45,3.42,3.29-.16,2-2.45,2.18-3.93,2C122.25,205.89,122.23,209.2,119.92,209.41Zm-20-12.09.11-.07a8,8,0,0,0,1.52,1.91c2.29,1.53,4.12-.43,5.7-1.38,1.9-1.14-.64-2-1-3.08-.94-3-5.1,1.77-5.76-2.27-1.27.53-2.51,1.15-1.92,2.84A10.56,10.56,0,0,0,99.9,197.32Zm30.85-55.66c-1.58-.74-3.81-1.8-6.07-2.82-.92-.41-2.06-.84-2.64.3-.66,1.32.85,1.43,1.45,2.09,1.88,2.06,5.43.77,6.94,3.52a2.18,2.18,0,0,0,1.11-.48C132.09,143.56,132.19,142.76,130.75,141.66Z"/><path class="cls-5" d="M143.59,141.21c-4.52-7.09-12.27-10-18.77-14.53,1.24-1.19,2.46-.56,3.63.1,18.48,10.35,30.65,25.88,37.22,45.84,1.08,3.28,2,7,.38,10.53l-.34,0-.7-1.6,0,0a4.15,4.15,0,0,0-.8-4.42l-.08,0c.79-2.08,0-3.75-1.42-5.22l-.08,0c.84-1.38,0-2.24-1-3l-.09.05C159,157.53,152.38,148.66,143.59,141.21Z"/><path class="cls-5" d="M81.31,172.87c2.52,3.78,2.47,8.39,3.88,12.56,4.47,13.16,13.21,22.29,24.75,29.2,3,1.76,6.13,3.12,9.21,4.66-.81.56-1.56,1.27-2.68.79-17.15-7.38-29.33-19.39-34.29-37.73C81.39,179.42,77.76,176.33,81.31,172.87Z"/><path class="cls-2" d="M123.1,238.56c11.21-2.55,22.18-1.81,33.51-6.26C149,240.65,132.33,243.6,123.1,238.56Z"/><path class="cls-5" d="M156.43,208.32c3.74-3.88,4.24-9.44,7.14-13.76.23-.79.46-1.59.7-2.39l0,.05.18-1.47,0,.08.18-1.49v.09c.06-.5.13-1,.19-1.49l0,.07.21-1.48,0,.09c.07-.5.13-1,.2-1.5l0,.08c.17-.69.34-1.38.5-2.08l.34,0c2.71,2.74.79,5.78.23,8.49-3,14.49-10.85,25-25.44,29.57-1.92.6-4.09,1.83-6.12,0l0-.16,1.62-1-.06,0c.87.58,1.57.13,2.25-.39l-.05-.07C146.24,218.63,151.92,214.4,156.43,208.32Z"/><path class="cls-5" d="M121.47,125.43c-5.36.12-10.7-2.28-16.07-.12-6.43.4-10.55,4.3-14,9.22a17.08,17.08,0,0,1-3.9,5.77l-.82.51c-1.26-2.05.3-3.37,1.2-4.92,6.69-11.44,17.3-14.38,29.6-13.82C119.8,122.18,120.27,124.16,121.47,125.43Z"/><path class="cls-2" d="M61.47,60.77c5-7.74,16-3.89,23.18,7.53-3.82.53-6.5-1.68-8.55-3.94C72.07,59.92,67.77,57.67,61.47,60.77Z"/><path class="cls-5" d="M83.51,149.72c-2,7.61-1.08,15.5-2.25,23.18-3.1-5.51-1.6-21,2.39-24.65a4.3,4.3,0,0,0,.29.78l0-.07A1.16,1.16,0,0,0,83.51,149.72Z"/><path class="cls-5" d="M119.91,219.9c4.16-1.39,8.13.19,12.16.84a1,1,0,0,0,.53.77A13.48,13.48,0,0,1,119.91,219.9Z"/><path class="cls-3" d="M50.82,136.87c2.32,3.75,2.41,8,2.44,12.23-1.81-3.86-3.19-7.82-2.47-12.23Z"/><path class="cls-2" d="M121.58,92.81c-3.88-2.88-7.72-5.82-10.5-11A54.4,54.4,0,0,1,121.58,92.81Z"/><path class="cls-9" d="M83.94,149a4.3,4.3,0,0,1-.29-.78l0,0,.33-1.47.05.09c.78-1.87,1.56-3.75,2.35-5.62a.44.44,0,0,0,.32-.47l.82-.51C88.94,144.28,86.2,146.56,83.94,149Z"/><path class="cls-5" d="M86.36,141.28c-.79,1.87-1.57,3.75-2.35,5.62C81.71,143.74,82.4,141.83,86.36,141.28Z"/><path class="cls-5" d="M124.88,126.7c-1.62.82-2.38-.65-3.46-1.28C123.21,124.12,124.06,125.37,124.88,126.7Z"/><path class="cls-9" d="M132.6,221.51a1,1,0,0,1-.53-.77c.65-.49,1.31-.78,2,0a1.49,1.49,0,0,0-.53.47A3.06,3.06,0,0,0,132.6,221.51Z"/><path class="cls-3" d="M54.38,154c.12,0,.32-.15.35-.11a1.35,1.35,0,0,1,.16.41c-.13,0-.33.15-.36.11A1.12,1.12,0,0,1,54.38,154Z"/><path class="cls-3" d="M50.79,136.87l-.48-1.25.45,0,.06,1.28Z"/><path class="cls-2" d="M158.58,232.17l.3.22-.26.35-.3-.22Z"/><path class="cls-5" d="M84,146.81l-.33,1.47Z"/><path class="cls-5" d="M133.53,221.17a1.49,1.49,0,0,1,.53-.47v-.1a5.46,5.46,0,0,0,.68.47l0,.16Z"/><path class="cls-9" d="M119.92,209.41c2.31-.21,2.33-3.52,4.93-3.15,1.48.21,3.77.05,3.93-2,.14-1.84-2.08-2.44-3.42-3.29-2.06-1.29-4.49-1-6.76-.73-1.4.14-2.63.71-1.32,2.64.92,1.34.08,2.6-1.28,3.07s-2.13-.59-2.51-1.78c-.62-2-2.71-3.44-1.68-6.08.9-2.3-1.24-3.9-2.67-4.88-5.55-3.83-5.25-10.86-9-15.62-.59-.74-.06-1.58.66-2.14a1.7,1.7,0,0,1,2.63.25c2.44,3.56,6.87,5.18,8.66,9.51,1,2.41,4.25,2.35,6.56,3.56-2.74-3.79-6.78-6.73-6-12.21.17-1.24-.65-2.58,1-3.35a2.77,2.77,0,0,1,3.57,1c1.29,2.33,4.47,2.56,5.31,5.4.48,1.61,2.65,1.39,3.9,1.37,1.44,0,.93-1.63.68-2.69-2.88.78-3.67-1.47-2.36-2.76s3.41.68,4.32,2.11c1.47,2.3,4.26,4.42,1.74,8,3.75-1.76,3.71-1.75,4.47,1.39a2.41,2.41,0,0,0,1.24,1.45c4.64,2,5.27,3.78,3.18,8.94-.85,2.09.4,4.16.38,6.27,0,1.29.6,2.56-.54,3.76s-4.76,1.92-1,4.34c.58.37,0,1.27-.73,1.46-2.76.7-5.24,3-8.08-.94C127.78,209.62,123.61,209.64,119.92,209.41Zm10.66-13.94c.58-1.27,3.93-.89,1.91-3.39-.61-.76-1.41-1.86-2.37-1.16C127.84,192.59,131.43,193.75,130.58,195.47Z"/><path class="cls-10" d="M147.17,163.59c1.57,0,1.46.9,1,2a1.88,1.88,0,0,1-2.16,1.33c-2.42-.08-6.1-2.46-6.37,3.05-.06,1.32-4.2.56-4.27.09-.65-4.41-6.58-4-7.21-8.17l.84-1.09-.44-.16-.39,1.25c-3.69.23-6,2.13-7.22,5.64-1,2.73-2.56,3.72-5.61,1.76-2.35-1.51-4.79-3.72-8.2-2.7-1.58.48-3.83.61-4.56-.79-1.3-2.5,2.43-1.37,2.83-3,.13-.55.74-1,1.09-1.42,2.32.75.18,2.45,1.09,3.49,1.84-.92,4.22-2.57,2.61-4.25s-2-3.74-3.87-4.89c-1-.61-3-1.26-2.24-2.68s2.58-3.06,4.53-2.4c3.24,1.1,6.9,1.41,9.47,4,3.64,3.72,5.92,3.44,9.13-1.68-6.7,1.37-10.89-2.46-15.17-6.3-1.13-1-1.91-1.64-1.24-3.24s1.81-1.44,3.21-1.57c5.3-.5,9.41,2.85,14.15,4.1a13,13,0,0,0,2.35.73c6.91.47,9.78,2.94,11.92,10.57.18.66.44.73.91.71,4.31-.17,2.82,3.6,3.85,5.66-.15.41-1.42.46-.42,1.26ZM136.46,158c-.82-1-1.63-2.54-3.05-1.15-1.15,1.12-1.88,3-1.21,4.41s2.55,1.34,3.89.53C137.76,160.79,137.32,159.36,136.46,158Zm-16.62,6c-.46-2-.9-3.86-3.14-3.24a1.78,1.78,0,0,0-1.4,2.29C116.26,165.62,118.61,161.83,119.84,164Zm18.49.7c-.32,0-.66,0-.86.15s-.27.49-.4.75c.28,0,.62,0,.82-.13S138.18,165,138.33,164.74Zm-5.57-16.08c.09.08.2.23.29.23s.36-.1.4-.21c.15-.42,0-.58-.46-.39C132.88,148.34,132.83,148.53,132.76,148.66Z"/><path class="cls-9" d="M143.59,141.21c8.79,7.45,15.38,16.32,17.95,27.79-3.16-3.66-4.18-8.47-6.91-12.47-3-4.35-5.47-8.94-9.68-12.3A3.05,3.05,0,0,1,143.59,141.21Z"/><path class="cls-9" d="M99.9,197.32a10.56,10.56,0,0,1-1.33-2c-.59-1.69.65-2.31,1.92-2.84.66,4,4.82-.72,5.76,2.27.34,1.07,2.88,1.94,1,3.08-1.58.95-3.41,2.91-5.7,1.38a8,8,0,0,1-1.52-1.91Z"/><path class="cls-10" d="M130.75,141.66c1.44,1.1,1.34,1.9.79,2.61a2.18,2.18,0,0,1-1.11.48c-1.51-2.75-5.06-1.46-6.94-3.52-.6-.66-2.11-.77-1.45-2.09.58-1.14,1.72-.71,2.64-.3C126.94,139.86,129.17,140.92,130.75,141.66Z"/><path class="cls-9" d="M156.43,208.32c-4.51,6.08-10.19,10.31-17.92,11.29,4-3.27,9.37-4,13.23-7.62C153.12,210.68,153.46,207.66,156.43,208.32Z"/><path class="cls-9" d="M91.4,134.53c3.45-4.92,7.57-8.82,14-9.22A95.59,95.59,0,0,0,91.4,134.53Z"/><path class="cls-9" d="M162.66,172c1.47,1.47,2.21,3.14,1.42,5.22C162.71,175.67,161.87,174,162.66,172Z"/><path class="cls-9" d="M164.16,177.15a4.15,4.15,0,0,1,.8,4.42C163.68,180.28,162.82,178.91,164.16,177.15Z"/><path class="cls-9" d="M165.71,183.12c-.16.7-.33,1.39-.5,2.08a2.51,2.51,0,0,1-.2-3.68C165.24,182.06,165.48,182.59,165.71,183.12Z"/><path class="cls-9" d="M161.63,169c1,.8,1.79,1.66,1,3C161.84,171.11,160.84,170.31,161.63,169Z"/><path class="cls-9" d="M138.56,219.68c-.68.52-1.38,1-2.25.39C137,219.47,137.68,219,138.56,219.68Z"/><path class="cls-9" d="M134.75,221.07a5.46,5.46,0,0,1-.68-.47c.65-.68,1.36-1.15,2.3-.5Z"/><path class="cls-9" d="M164.27,192.17c-.24.8-.47,1.6-.7,2.39C163,193.52,163.39,192.78,164.27,192.17Z"/><path class="cls-9" d="M83.51,149.72A1.16,1.16,0,0,1,84,149C84.33,149.52,84.49,150,83.51,149.72Z"/><path class="cls-9" d="M165.19,185.12c-.07.5-.13,1-.2,1.5C165.05,186.12,165.12,185.62,165.19,185.12Z"/><path class="cls-9" d="M165,186.53,164.8,188Z"/><path class="cls-9" d="M164.82,187.94c-.06.5-.13,1-.19,1.49C164.69,188.93,164.76,188.44,164.82,187.94Z"/><path class="cls-9" d="M164.63,189.34l-.18,1.49Z"/><path class="cls-9" d="M164.42,190.75l-.18,1.47Z"/><path class="cls-8" d="M130.58,195.47c.85-1.72-2.74-2.88-.46-4.55,1-.7,1.76.4,2.37,1.16C134.51,194.58,131.16,194.2,130.58,195.47Z"/><path class="cls-8" d="M136.46,158c.86,1.36,1.3,2.79-.37,3.79-1.34.81-3.21.91-3.89-.53s.06-3.29,1.21-4.41C134.83,155.46,135.64,157,136.46,158Z"/><path class="cls-8" d="M119.84,164c-1.23-2.21-3.58,1.58-4.54-.95a1.78,1.78,0,0,1,1.4-2.29C118.94,160.18,119.38,162,119.84,164Z"/><path class="cls-8" d="M138.33,164.74c-.15.29-.23.62-.44.77s-.54.09-.82.13c.13-.26.2-.6.4-.75S138,164.79,138.33,164.74Z"/><path class="cls-8" d="M147.17,163.59l-.41,1.27c-1-.8.27-.85.42-1.26Z"/><path class="cls-8" d="M128.15,161.85l.39-1.25.44.16-.84,1.09Z"/><path class="cls-8" d="M132.76,148.66c.07-.13.12-.32.23-.37.42-.19.61,0,.46.39,0,.11-.26.2-.4.21S132.85,148.74,132.76,148.66Z"/></g></g></g></svg>