<svg xmlns="http://www.w3.org/2000/svg" viewBox="0 0 288.62 256.16"><defs><style>.cls-1{fill:#e09c69;}.cls-2{fill:#ffde8e;}.cls-3{fill:#b56743;}.cls-4{fill:#e08e68;}.cls-5{fill:#bc7f7c;}.cls-6{fill:#4f242d;}.cls-7{fill:#985856;}.cls-8{fill:#6d3c42;stroke:#4f242d;stroke-width:0.75px;}.cls-10,.cls-8,.cls-9{stroke-miterlimit:10;}.cls-9{fill:none;stroke:#ac6f6c;stroke-linecap:round;stroke-width:2px;}.cls-10{fill:#ffeed5;stroke:#b56743;}.cls-11{fill:#feb938;}</style></defs><title>Asset 18</title><g id="Layer_2" data-name="Layer 2"><g id="Layer_1-2" data-name="Layer 1"><path class="cls-1" d="M103.7,174.39l183.35,9.77-.28,10.6c-.28,10.61-29.3,19.82-49.39,26s-53,16.74-64.19,24-27.89,15.94-49.49,8.74c-11.16-3.72-22.51-26-35.9-50l-9.49-19.54c-8.93-7.53-12.19-14.8-16.75-28.46-3.34-10-.44-21,3.35-31.26,1-2.65-2.51-3.63,11.17-3.35S103.7,174.39,103.7,174.39Z"/><path class="cls-2" d="M268.35,153.71l.27.35c.05.07,5.29,6.87,9.43,12.05l1.53,1.89c4.68,5.75,10.5,12.9,7.86,15.54-1.49,1.5-17.33,6.81-41.31,14.75-14.22,4.71-27.66,9.15-33.79,11.56-15.34,6-70.44,23.62-75.58,24.13l-2.22.23Z"/><path class="cls-3" d="M268.22,154.37s5.24,6.81,9.44,12,12,14.15,9.43,16.77-60.26,20.43-74.93,26.19S142,233,136.71,233.49l131.51-79.12m.25-1.32-.76.46L136.19,232.63l-3.81,2.29,4.43-.44c5.65-.56,61.87-18.72,75.72-24.16,6.11-2.41,19.54-6.85,33.76-11.56,24.77-8.2,39.93-13.29,41.5-14.87,2.75-2.74-1.71-8.7-7.82-16.2-.55-.67-1.06-1.31-1.53-1.9-4.14-5.17-9.37-12-9.42-12l-.55-.71Z"/><path class="cls-4" d="M208.16,210.89l76-36.19c-2.07-2.91-4.65-5.95-6.51-8.28-4.2-5.24-9.44-12-9.44-12L136.71,233.49C141.55,233,189.37,217.75,208.16,210.89Z"/><path class="cls-2" d="M136,235.13c-7.59,0-15.52-16.59-18.57-23.71-1.87-4.35-7.38-12.09-13.76-21-9.47-13.3-21.27-29.87-25.55-41.86-1.89-5.29-5.21-10.15-8.14-14.45-3.18-4.65-5.68-8.33-5.25-11,.7-4.17,21.41-17.25,61.56-38.87,7.93-4.27,16.63-9.14,25-13.85,25.21-14.13,49-27.47,58.45-28.65a27,27,0,0,1,3.39-.23c7.09,0,9.17,3.88,13.74,12.37,1.58,2.95,3.55,6.62,6.15,10.89,6.36,10.44,17.83,28.17,27,42.42,6.77,10.46,12.61,19.49,14.61,22.82.84,1.4,1.77,2.86,2.75,4.4,4.64,7.27,9.43,14.79,6.67,18.93-2.24,3.35-16.3,10.49-31.19,18.06-6.44,3.28-13.11,6.66-18.5,9.6-12.94,7.06-56.7,31.54-80.21,44.68l-15.68,8.77A5.22,5.22,0,0,1,136,235.13Z"/><path class="cls-3" d="M213.13,42c9.2,0,9.54,6.71,19.46,23,11,18.08,36.94,57.38,41.66,65.24s12.58,18.07,9.43,22.79-32.22,18.08-49.51,27.51S145.35,230.08,138.28,234a4.72,4.72,0,0,1-2.32.62c-6.56,0-13.9-13.59-18.11-23.41-4.72-11-32.21-43-39.3-62.88-3.93-11-14.15-20.43-13.36-25.15s30.65-22,61.3-38.51,70.74-40.87,83.31-42.44a27.7,27.7,0,0,1,3.33-.23m0-1a28.09,28.09,0,0,0-3.45.24C200.16,42.44,176.3,55.8,151,70c-8.4,4.71-17.1,9.59-25,13.85C65.29,116.5,64.47,121.41,64.2,123c-.47,2.82,2.09,6.57,5.32,11.31,2.92,4.27,6.22,9.11,8.09,14.34,4.3,12.06,16.12,28.65,25.62,42,6.36,8.93,11.86,16.65,13.7,20.94,3.09,7.22,11.14,24,19,24a5.66,5.66,0,0,0,2.81-.75c1.76-1,7.55-4.21,15.51-8.67,23.56-13.17,67.4-37.69,80.37-44.77,5.39-2.94,12-6.32,18.48-9.59,14.95-7.6,29.08-14.78,31.38-18.24,2.94-4.41-1.94-12.06-6.65-19.47q-1.49-2.29-2.75-4.39c-2-3.33-7.85-12.36-14.61-22.82-9.22-14.25-20.7-32-27.05-42.42-2.59-4.25-4.56-7.92-6.14-10.86C222.79,45.23,220.52,41,213.13,41Z"/><path class="cls-4" d="M162.77,101.28c9.31.74,18.24,6,18.24,6s-16.38-2.23-16,16-.38,23.44,15.62,24.19,31.63,9.67,39.07,1.48,6.7-22.69,6.7-22.69L163.62,64.07l-9.76,5.45c-.52,1-.2,2.69-.39,4.22C151.24,91.6,153.47,100.53,162.77,101.28Z"/><path class="cls-5" d="M235.15,109.7a106.83,106.83,0,0,1-28.92-4.33c-3-.89-5.84-1.72-8.57-2.5-12.1-3.48-21.66-6.23-29.16-11.53-9.64-6.8-13-43.49-11.49-53.11,1.75-11,8.59-17.16,29.3-26.16a75.19,75.19,0,0,1,29.75-6.26c2.19,0,4.37.11,6.47.32,8.61.86,26.52,2.65,44.78,13.49,14,8.31,14,28.2,14,42.72,0,3.59,0,7,.21,9.76C282.66,87,257.88,103.37,251.18,107c-3.37,1.79-8.92,2.75-16,2.75Z"/><path class="cls-6" d="M216.06,6.31c2.21,0,4.35.11,6.42.31,10.74,1.08,27.39,3.23,44.57,13.43s12.89,38.12,14,52.09-22,30.07-30.07,34.36c-3.44,1.84-9.14,2.69-15.79,2.69a105.25,105.25,0,0,1-28.78-4.3c-16.11-4.83-28.46-7.52-37.59-14S155.9,48.51,157.51,38.31s7.41-16.4,29-25.78a74.86,74.86,0,0,1,29.56-6.22m0-1a75.81,75.81,0,0,0-29.95,6.3c-20.9,9.09-27.81,15.29-29.59,26.54-1.53,9.7,1.92,46.7,11.69,53.6,7.57,5.34,17.16,8.1,29.31,11.6,2.75.79,5.58,1.61,8.57,2.5a105.53,105.53,0,0,0,29.06,4.34c5,0,11.91-.48,16.26-2.8,6.76-3.61,31.77-20.17,30.6-35.33-.21-2.75-.21-6.14-.21-9.72,0-14.65,0-34.7-14.24-43.15-18.35-10.9-36.33-12.7-45-13.56-2.11-.21-4.31-.32-6.52-.32Z"/><path class="cls-7" d="M200,72.67s-2.82,1.31-2.42,3.93-1,10.87,7.35,9.67a10.15,10.15,0,0,0,7.65-5.14L202.41,76.9Z"/><path class="cls-8" d="M199.83,75c0,5.3,2.59,11.11,8.89,8.15s12.6-5.19,9.63-14.45-7-8.89-11.11-7S199.83,70.91,199.83,75Z"/><path class="cls-6" d="M216.38,76.59a9.2,9.2,0,0,1-10.38.74c-5.93-3.21-3.46-9.88-3.46-9.88l-.55.07A17.89,17.89,0,0,0,199.83,75c0,5.3,2.59,11.11,8.89,8.15,1.7-.8,3.39-1.55,4.91-2.39C217,77,216.38,76.59,216.38,76.59Z"/><path class="cls-7" d="M281,72.14c-.16-2.13-.2-4.58-.21-7.24-3.74,9-7.71,17.38-10.12,19.45C265,89.19,240.87,99.25,228,98.85s-39.47-5.23-51.55-11.28C167.9,83.31,161.18,67,158,57.76c1.51,13.6,5.12,29.15,10.82,33.17,9.13,6.44,21.48,9.13,37.59,14s36.52,5.91,44.57,1.61S282.09,86.1,281,72.14Z"/><path class="cls-8" d="M156.7,35.62c-3.28,2.87-2.82,2-3.22,8.06s-3.63,16.11,8.05,22.55,13.7,2,19.74-2,10.07-6.85,6-14.5-6.85-16.11-11.68-18.93S159.92,32.8,156.7,35.62Z"/><path class="cls-6" d="M184.13,62.24a59.53,59.53,0,0,1-8.37,1.3c-5.1.27-8.86.54-15-6.17-3.6-3.91-5.92-9.82-7.23-14.08,0,.13,0,.25,0,.39-.4,6-3.63,16.11,8.05,22.55s13.7,2,19.74-2C182.29,63.53,183.25,62.89,184.13,62.24Z"/><path class="cls-8" d="M237.52,73.21c-3.49,7-4,8.32-3.49,11.81s-1.34,5.91,8.86,9.4,12.35-1.07,16.38-4.83,4.56-7,4.56-11.82-.54-5.37-6.44-8-9.67-4-12.89-1.88S237.52,73.21,237.52,73.21Z"/><path class="cls-6" d="M259.27,89.59a12.5,12.5,0,0,0,4.35-8,68.69,68.69,0,0,1-9.19,8c-4.56,3-5.1,1.34-9.93-.54s-8.32-4.83-8.59-7c-.16-1.27-.23-3.46-.25-5.06-1.81,3.85-2,5.28-1.63,8,.53,3.49-1.34,5.91,8.86,9.4S255.24,93.35,259.27,89.59Z"/><line class="cls-9" x1="221.54" y1="34.01" x2="220.74" y2="38.44"/><line class="cls-9" x1="225.67" y1="37.23" x2="226.68" y2="40.25"/><line class="cls-9" x1="249.06" y1="48.78" x2="248.26" y2="52.8"/><line class="cls-9" x1="252.55" y1="46.63" x2="252.82" y2="50.66"/><line class="cls-9" x1="246.92" y1="32.94" x2="247.18" y2="34.82"/><line class="cls-9" x1="186.5" y1="73.88" x2="186.1" y2="78.31"/><line class="cls-9" x1="193.55" y1="81.13" x2="194.16" y2="84.76"/><line class="cls-9" x1="212.55" y1="85.83" x2="212.01" y2="88.51"/><path class="cls-7" d="M189.24,11.41c4.88-1.14,9.21-1.87,11.36-1.56,4.23.6,4.63,7.65,11.88,7.45s13.9-2.82,15.1-4.43,4.43-2.82,2.62-5.24a.47.47,0,0,0-.1-.1c-2.77-.39-5.33-.68-7.62-.91A73.32,73.32,0,0,0,189.24,11.41Z"/><path class="cls-8" d="M207,8.23c2.82,2.82,4.84,6,8.46,5.24s9.26-.81,13.29-4,2.82-2.41-2-5.23S216.31-.22,213.09.58s-8.66,4-8.66,5.24S207,8.23,207,8.23Z"/><path class="cls-6" d="M216.71,10.25c-6.09-2.54-7.91-5.5-7.38-8.18-2.54,1.28-4.9,2.95-4.9,3.75C204.43,7,207,8.23,207,8.23c2.82,2.82,4.84,6,8.46,5.24,1.78-.39,4-.6,6.35-1.08Z"/><path class="cls-7" d="M245.3,21.73c-1.2.8-5.63.8-1.2,4s12.68,9.07,14.7,6.45a5.74,5.74,0,0,0,1.2-5l-6.44-.6Z"/><path class="cls-8" d="M247.45,10.11c-2.82,2.83-2.15,6.45-1.61,9.94s.54,4.56,7.25,8.05,8.59-.27,10.2-4.83,1.61-12.62-5.63-13.42S249.06,8.5,247.45,10.11Z"/><path class="cls-6" d="M253.09,28.1c5.59,2.91,7.82.79,9.35-2.63-2,1.44-5.16,2.21-9.62-.86-5-3.44-6.82-6.88-7.46-9.16a29,29,0,0,0,.48,4.6C246.38,23.54,246.38,24.61,253.09,28.1Z"/><path class="cls-9" d="M192.41,15.48s-3.76-.26-5.91,1.08"/><path class="cls-9" d="M191.14,20.12a3.13,3.13,0,0,1-2.62,1"/><path class="cls-9" d="M174,22.93s-3.22.81-4.43,2"/><path class="cls-5" d="M208.75,145.72a53.34,53.34,0,0,1-14.71-2.2c-1.51-.45-2.95-.86-4.33-1.26-6.15-1.77-11-3.17-14.84-5.87-4.94-3.49-6.69-22.22-5.91-27.13.9-5.69,4.4-8.83,15-13.42a38.29,38.29,0,0,1,15.16-3.19,32.42,32.42,0,0,1,3.3.16c4.38.44,13.48,1.35,22.77,6.86,7.2,4.28,7.2,14.43,7.2,21.84,0,1.81,0,3.52.11,4.92.59,7.67-12.07,16-15.49,17.87-2.2,1.18-5.69,1.42-8.23,1.42Z"/><path class="cls-6" d="M199.09,93.15a31,31,0,0,1,3.25.16c5.44.54,13.86,1.63,22.56,6.79s6.53,19.3,7.07,26.37-11.14,15.22-15.22,17.39c-1.74.93-4.63,1.36-8,1.36a53.31,53.31,0,0,1-14.56-2.17c-8.16-2.45-14.41-3.81-19-7.07s-6.52-21.47-5.71-26.64,3.76-8.3,14.68-13a38,38,0,0,1,15-3.14m0-1a38.8,38.8,0,0,0-15.36,3.23c-10.63,4.62-14.34,8-15.26,13.81-.81,5.13.93,23.95,6.11,27.61,3.91,2.75,8.8,4.16,15,5.94,1.38.4,2.82.81,4.33,1.26a54,54,0,0,0,14.85,2.22c2.6,0,6.18-.25,8.47-1.48,3.48-1.85,16.36-10.41,15.75-18.35-.11-1.38-.11-3.08-.11-4.88,0-7.53,0-17.85-7.45-22.27-8.27-4.91-16.25-6.26-23-6.93a33.42,33.42,0,0,0-3.35-.16Z"/><path class="cls-7" d="M191,126.74s-1.43.66-1.22,2-.51,5.5,3.72,4.89a5.12,5.12,0,0,0,3.87-2.6l-5.15-2.14Z"/><path class="cls-8" d="M190.87,127.91c0,2.68,1.32,5.63,4.51,4.13s6.37-2.63,4.87-7.32-3.56-4.5-5.62-3.56S190.87,125.85,190.87,127.91Z"/><path class="cls-6" d="M199.25,128.72a4.66,4.66,0,0,1-5.25.38c-3-1.63-1.75-5-1.75-5l-.28,0a9,9,0,0,0-1.1,3.78c0,2.68,1.32,5.63,4.51,4.13.86-.41,1.71-.79,2.48-1.22C199.56,128.94,199.25,128.72,199.25,128.72Z"/><path class="cls-7" d="M232,126.47c-.08-1.08-.1-2.32-.11-3.66-1.89,4.53-3.9,8.79-5.12,9.84-2.86,2.45-15.09,7.54-21.61,7.34s-20-2.65-26.1-5.71c-4.32-2.16-7.72-10.42-9.35-15.09.77,6.88,2.6,14.75,5.48,16.79,4.62,3.26,10.87,4.62,19,7.07s18.48,3,22.56.81S232.51,133.53,232,126.47Z"/><path class="cls-8" d="M169.05,108c-1.66,1.45-1.43,1-1.64,4.08s-1.83,8.15,4.08,11.42,6.93,1,10-1,5.1-3.47,3.06-7.34-3.47-8.16-5.91-9.58S170.68,106.56,169.05,108Z"/><path class="cls-6" d="M182.93,121.46a31.46,31.46,0,0,1-4.24.66c-2.58.13-4.48.27-7.61-3.13a19.41,19.41,0,0,1-3.65-7.12c0,.06,0,.12,0,.19-.2,3.06-1.83,8.15,4.08,11.42s6.93,1,10-1Z"/><path class="cls-8" d="M210,127c-1.76,3.53-2,4.21-1.76,6s-.68,3,4.48,4.76,6.25-.55,8.29-2.45,2.31-3.53,2.31-6-.27-2.72-3.26-4.08-4.89-2-6.52-.95S210,127,210,127Z"/><path class="cls-6" d="M221,135.3a6.24,6.24,0,0,0,2.2-4.06,34.47,34.47,0,0,1-4.65,4.06c-2.31,1.49-2.58.68-5-.27s-4.22-2.45-4.35-3.54c-.08-.64-.12-1.75-.13-2.56-.91,1.95-1,2.67-.82,4.06.27,1.77-.68,3,4.48,4.76S218.92,137.2,221,135.3Z"/><line class="cls-9" x1="201.87" y1="107.17" x2="201.46" y2="109.41"/><line class="cls-9" x1="203.96" y1="108.8" x2="204.47" y2="110.33"/><line class="cls-9" x1="215.8" y1="114.64" x2="215.39" y2="116.68"/><line class="cls-9" x1="217.56" y1="113.55" x2="217.7" y2="115.59"/><line class="cls-9" x1="214.71" y1="106.62" x2="214.85" y2="107.57"/><line class="cls-9" x1="184.13" y1="127.35" x2="183.93" y2="129.59"/><line class="cls-9" x1="187.7" y1="131.02" x2="188" y2="132.85"/><line class="cls-9" x1="197.31" y1="133.4" x2="197.04" y2="134.76"/><path class="cls-7" d="M185.52,95.73a19.92,19.92,0,0,1,5.75-.79c2.14.3,2.34,3.87,6,3.77s7-1.43,7.64-2.25,2.25-1.42,1.33-2.65l-.05,0c-1.4-.2-2.7-.34-3.86-.46A37.16,37.16,0,0,0,185.52,95.73Z"/><path class="cls-8" d="M194.53,94.12c1.42,1.43,2.44,3.06,4.28,2.65s4.69-.41,6.73-2,1.42-1.22-1-2.65-5.3-2.24-6.93-1.83-4.39,2-4.39,2.65S194.53,94.12,194.53,94.12Z"/><path class="cls-6" d="M199.42,95.14c-3.08-1.29-4-2.79-3.74-4.14-1.28.65-2.48,1.49-2.48,1.9,0,.61,1.33,1.22,1.33,1.22,1.42,1.43,2.44,3.06,4.28,2.65.9-.2,2-.3,3.21-.55Z"/><path class="cls-7" d="M213.89,101c-.61.41-2.85.41-.61,2s6.42,4.58,7.44,3.26a2.9,2.9,0,0,0,.61-2.55l-3.26-.3Z"/><path class="cls-8" d="M215,95.07c-1.43,1.43-1.09,3.26-.81,5s.27,2.31,3.67,4.08,4.34-.14,5.16-2.45.82-6.39-2.85-6.79S215.8,94.26,215,95.07Z"/><path class="cls-6" d="M217.84,104.18c2.82,1.47,3.95.39,4.73-1.34-1,.73-2.62,1.12-4.87-.43a8.69,8.69,0,0,1-3.78-4.63,14.3,14.3,0,0,0,.25,2.32C214.44,101.87,214.44,102.41,217.84,104.18Z"/><path class="cls-9" d="M187.12,97.79a6,6,0,0,0-3,.54"/><path class="cls-9" d="M186.48,100.13a1.56,1.56,0,0,1-1.33.51"/><path class="cls-9" d="M177.81,101.56a6.34,6.34,0,0,0-2.24,1"/><path class="cls-10" d="M111.42,131.67c0,16.71-3.86,33.1-15.21,43.43-9.81,8.92-26,13-40.23,13-16.56,0-30.08-9.26-40.24-21C7.11,157.16.53,146,.53,131.67c0-8.76-.55-15.58,3-23,3.87-8.19,11.87-17.16,19.23-22.16C32.19,80.09,44.93,79.49,56,75.26c14.32-5.49,29.17,6.31,39.2,16.52A56.75,56.75,0,0,1,111.42,131.67Z"/><path class="cls-11" d="M56.47,131.37c2.18-1.16,5.21-5.23,6.46-7,1.83-2.58,4.4-7.37,9.15-14S83.43,95,83.43,91.36,74,84.86,67.81,83.75s-7.07-2.45-7.81,6c-.67,7.75-2.94,30-3.9,38.3C56,128.9,55.72,131.77,56.47,131.37Z"/><path class="cls-11" d="M67.33,122.53c-2.93,2.21-11.21,12.38-7.69,8.84,1.1-1.1,11-8.47,15.74-9.94s20.86-9.57,23.79-11.78.37-5.53-5.86-11.42S86,96.39,83.8,99.34,70.25,120.33,67.33,122.53Z"/><path class="cls-11" d="M58.3,137.75c-1.47-2.94-3.18,8.35-3.42,16.7-.23,7.73-1.83,17.79-2.2,21.47s-1.83,4.42,3.3,6.26,13.91-2.57,16.84-4.05-2.93-11-2.93-11S59.48,140.13,58.3,137.75Z"/><path class="cls-11" d="M85.26,153.83C76.11,147.94,57.81,134,59.64,138c2.54,5.62,11.35,24.3,12.44,29.09s2.57,8.22,5.49,7.48,11.47-4,14.4-10.31S94.41,159.72,85.26,153.83Z"/><path class="cls-11" d="M53.84,127.43c2,3.95,2.4-19.18,3.45-30.05S59.87,85,53.17,83.46s-14.57,3.15-17,5-.49,7.31,2.57,11.13S51,122,53.84,127.43Z"/><path class="cls-11" d="M102,112.84c-.61-1.47-9.64,2.21-13.55,4.66s-17.2,7.24-19.15,9.45-10.93,5.46-8.54,6.26c1.46.49,3.17-.12,6.34-.24s12.93.61,23.67.37,12,2.7,13.3-4.3S102.59,114.31,102,112.84Z"/><path class="cls-11" d="M47.32,145.61c.37-2.91,7.66-10.64,5.27-10-1.47.39-2.53,1.83-5.05,3.67S36.64,145.85,28,151.93s-11.25,4.3-8.49,10.85,7.64,7.54,9,8.44,7.35-6,9.19-10.17S46.94,148.52,47.32,145.61Z"/><path class="cls-11" d="M99.17,136.65c-3.42-.49-16.1-.74-21.11-1.35s-12.19-.49-17.2-.49c-1.83,0,10.13,6.75,13,9s19.53,10.08,21.6,11.66c3.11,2.36,6.53-9.42,6.77-10.9S102.59,137.14,99.17,136.65Z"/><path class="cls-11" d="M24.43,112.64s25.72,15.93,28,17.26c2.83,1.65-2.78-7.54-7.32-13.79S35.66,99,34,95.73s-.9-4.7-6.18-3.39-10.2,9.85-11.84,12.71S24.43,112.64,24.43,112.64Z"/><path class="cls-11" d="M55.12,137.75c.49-3.25-5.64,8.44-9.76,15s-10,16.83-12.44,19.63.54,2.76,4.39,6.63c2.44,2.46,8.48.74,11.71,1.23s2.69-13.75,2.69-13.75S54.73,140.38,55.12,137.75Z"/><path class="cls-11" d="M21.2,131.37c10.87-.15,33.77,2.64,30,.28C46,128.36,31.87,119.42,27.61,117c-11.76-6.64-12.78-6.84-14.82-4.6S8,119.12,9,126,10.34,131.53,21.2,131.37Z"/><path class="cls-11" d="M37.57,143.13C42.08,140.87,48,136.78,52.2,134c1.53-1-12.15,0-15.8-.24S14.58,136.16,12,136c-3.89-.25-.29,11.47.31,12.84s3.8,6.34,6.92,4.86S33.06,145.39,37.57,143.13Z"/><path class="cls-10" d="M62.86,196.78C63.33,182.9,67,169.4,76.7,161.14c8.39-7.14,22-10,33.77-9.66,13.74.46,24.71,8.53,32.82,18.53,6.89,8.5,12,18,11.64,29.85-.24,7.27,0,12.94-3.08,19a51.16,51.16,0,0,1-16.59,17.87c-8,5.09-18.65,5.24-27.93,8.44-12,4.16-24-6.05-32.09-14.81A47.11,47.11,0,0,1,62.86,196.78Z"/><path class="cls-11" d="M108.48,198.55c-1.84.9-4.48,4.2-5.56,5.63-1.59,2.09-3.85,6-8,11.36S85.08,228,85,231s7.62,5.66,12.76,6.75,5.8,2.24,6.65-4.78c.77-6.41,3.27-24.82,4.3-31.68C108.8,200.61,109.11,198.24,108.48,198.55Z"/><path class="cls-11" d="M99.22,205.58c2.49-1.75,9.65-10,6.63-7.12-.94.89-9.35,6.73-13.35,7.82s-17.59,7.36-20.08,9.12S72,220,77,225s6,1.73,7.93-.66S96.73,207.34,99.22,205.58Z"/><path class="cls-11" d="M107.14,193.2c1.13,2.48,2.87-6.84,3.3-13.77.4-6.41,2-14.72,2.42-17.77s1.64-3.62-2.56-5.29-11.62,1.76-14.09,2.9,2.12,9.25,2.12,9.25S106.23,191.19,107.14,193.2Z"/><path class="cls-11" d="M85.2,179.1c7.43,5.14,22.24,17.27,20.83,13.86-2-4.74-8.74-20.5-9.52-24.5s-1.9-6.9-4.35-6.37-9.64,3-12.24,8.16S77.76,174,85.2,179.1Z"/><path class="cls-11" d="M110.56,201.9c-1.58-3.34-2.53,15.85-3.7,24.85s-2.49,10.2,3,11.67,12.18-2.21,14.22-3.69.61-6.06-1.83-9.32S112.75,206.53,110.56,201.9Z"/><path class="cls-11" d="M70.18,212.67c.47,1.24,8.06-1.57,11.37-3.5s14.49-5.53,16.17-7.31,9.23-4.23,7.27-5c-1.2-.45-2.64,0-5.28,0s-10.72-.87-19.64-1-9.85-2.57-11.16,3.2S69.71,211.43,70.18,212.67Z"/><path class="cls-11" d="M116.48,187c-.4,2.4-6.66,8.62-4.66,8.16,1.23-.29,2.15-1.46,4.29-2.91s9.23-5.15,16.57-10,9.46-3.25,7.35-8.77-6.13-6.48-7.2-7.26-6.26,4.77-7.9,8.19S116.87,184.58,116.48,187Z"/><path class="cls-11" d="M73.17,193c2.82.5,13.35,1.06,17.49,1.71a133.63,133.63,0,0,0,14.27.88c1.52.05-8.22-5.88-10.59-7.8s-15.93-8.92-17.61-10.28c-2.51-2.05-5.68,7.64-5.92,8.85S70.35,192.48,73.17,193Z"/><path class="cls-11" d="M134.56,215s-20.92-13.94-22.78-15.11c-2.3-1.44,2.1,6.34,5.7,11.66s7.38,14.46,8.71,17.22.61,3.93,5,3,8.74-7.91,10.18-10.23S134.56,215,134.56,215Z"/><path class="cls-11" d="M109.77,193.29c-.49,2.69,4.92-6.85,8.52-12.16s8.81-13.7,10.88-16-.37-2.31-3.46-5.63c-2-2.1-7-.85-9.69-1.34s-2.61,11.34-2.61,11.34S110.17,191.12,109.77,193.29Z"/><path class="cls-11" d="M137.76,199.53c-9-.18-28-3.13-24.92-1.06,4.22,2.87,15.73,10.69,19.2,12.8,9.58,5.85,10.43,6,12.18,4.24a13.41,13.41,0,0,0,3.52-11.16C147.11,198.64,146.78,199.7,137.76,199.53Z"/><path class="cls-11" d="M124.5,189.31a133.92,133.92,0,0,0-12.4,7.17c-1.3.8,10.08.36,13.11.64s18.19-1.38,20.33-1.17c3.22.31.56-9.53.1-10.68s-3-5.37-5.61-4.22S128.3,187.56,124.5,189.31Z"/></g></g></svg>