<svg xmlns="http://www.w3.org/2000/svg" xmlns:xlink="http://www.w3.org/1999/xlink" viewBox="0 0 143.45 51.39"><defs><style>.cls-1{fill:none;}.cls-2{fill:#fff2cf;}.cls-3{fill:#c18b5d;}.cls-4{clip-path:url(#clip-path);}.cls-5{fill:#fff7e6;}.cls-6{fill:#e8cb9f;}</style><clipPath id="clip-path"><path class="cls-1" d="M45.13,25.32C37.42,26.77,1,31.46,1,36.49s19.55,10.06,45.24,7.26,67.59,0,79.87-1.11,20.67-7.27,14-11.73-29.05-5-35.19-10.06,15.64-8.38-2.23-11.17S49,9.12,43.45,12.47,54.06,23.65,45.13,25.32Z"/></clipPath></defs><title>Asset 7</title><g id="Layer_2" data-name="Layer 2"><g id="Layer_1-2" data-name="Layer 1"><path class="cls-2" d="M31.79,45.05C14.24,45.05.5,41.29.5,36.49c0-3.81,14.63-6.89,38.23-10.62,2.77-.44,5-.79,6.3-1s2.12-.65,2.3-1.17c.33-.94-1.18-2.67-2.5-4.2-1.64-1.88-3.33-3.82-3-5.54a2.68,2.68,0,0,1,1.41-1.87C47.44,9.5,66.55,7.92,81.81,7.92a143,143,0,0,1,20.92,1.27c5.1.79,7.3,1.64,7.6,2.93s-1.16,2.23-2.83,3.4c-1.5,1.06-3.2,2.26-3.24,3.4a2,2,0,0,0,.95,1.55c3.11,2.54,10.76,4,18.16,5.31,7,1.3,13.7,2.52,17,4.71,2.61,1.74,2.79,3.55,2.48,4.77-1,3.77-8,7.08-16.68,7.87-2.11.2-5.14.28-9.55.28s-9.93-.09-15.72-.19C93.92,43.1,86,43,78.19,43A308.17,308.17,0,0,0,46.3,44.25a135.5,135.5,0,0,1-14.51.8Z"/><path class="cls-3" d="M81.81,8.42a144.49,144.49,0,0,1,20.85,1.26c17.87,2.79-3.91,6.15,2.23,11.17s28.49,5.59,35.19,10.06-1.68,10.61-14,11.73c-2.26.2-5.52.27-9.5.27-9.85,0-24.1-.44-38.42-.44a314.58,314.58,0,0,0-31.95,1.28,132.42,132.42,0,0,1-14.45.8C13.57,44.55,1,40.52,1,36.49c0-5,36.42-9.72,44.13-11.17,8.93-1.67-7.27-9.49-1.68-12.85,3.82-2.29,21.71-4.05,38.36-4.05m0-1c-15.33,0-34.55,1.6-38.87,4.2a3.18,3.18,0,0,0-1.66,2.22c-.31,1.95,1.46,4,3.17,5.95,1,1.21,2.64,3,2.41,3.71,0,.09-.27.53-1.92.84-1.33.25-3.52.59-6.29,1C6.32,30.49,0,33.32,0,36.49c0,5.17,13.67,9.06,31.79,9.06a136.56,136.56,0,0,0,14.56-.8,304.76,304.76,0,0,1,31.84-1.28c7.82,0,15.72.13,22.69.25,5.79.1,11.26.19,15.73.19s7.47-.09,9.6-.28c8.91-.81,16.11-4.28,17.12-8.25.28-1.12.31-3.3-2.7-5.31-3.36-2.24-10.07-3.47-17.17-4.78-7.34-1.35-14.92-2.74-17.94-5.21-.51-.42-.77-.81-.76-1.14,0-.9,1.76-2.12,3-3,1.74-1.22,3.38-2.38,3-3.92-.3-1.29-1.77-2.34-8-3.32a144.33,144.33,0,0,0-21-1.27Z"/><g class="cls-4"><path class="cls-5" d="M59.83,7.45C45.68,8.94,39.73,13,58,18.62s41.71,3.35,47.66-.37S131.7,0,131.7,0Z"/><path class="cls-6" d="M141.38,39.47c-34.26.75-43.19-7.07-66.65-3.35S2.49,29.79,1,36.49,42.33,51,42.33,51l48.78.38,45.43-6.71Z"/></g></g></g></svg>