<svg xmlns="http://www.w3.org/2000/svg" xmlns:xlink="http://www.w3.org/1999/xlink" viewBox="0 0 265.87 90.11"><defs><style>.cls-1{fill:none;}.cls-2{fill:#fff2cf;}.cls-3{fill:#c18b5d;}.cls-4{clip-path:url(#clip-path);}.cls-5{fill:#e8cb9f;}.cls-6{fill:#fff7e6;}</style><clipPath id="clip-path"><path class="cls-1" d="M122.88,32.21c20.66-.67,16.76-4.47,9.5-8.94S121.2,11,140.75,10.43s58.09,1.67,77.64,6.7,6.7,7.82-.56,9.49S200,35,213.92,39.47s46.92,8.94,42.45,17.87-38,5-60.32,7.82-95,1.12-113.94-2.23S37.42,46.17,60.88,40.59A312.3,312.3,0,0,1,122.88,32.21Z"/></clipPath></defs><title>Asset 8</title><g id="Layer_2" data-name="Layer 2"><g id="Layer_1-2" data-name="Layer 1"><path class="cls-2" d="M158.44,67.07C131.05,67.07,95,65.71,82,63.42S51.21,53.8,51,47c-.09-3,3.19-5.3,9.76-6.86a312.73,312.73,0,0,1,62.09-8.39c11.72-.38,14.53-1.76,14.82-2.86.4-1.48-3.94-4.15-5.57-5.15-3.46-2.13-6.87-5.51-6.05-8.59s5.79-4.93,14.68-5.18c1.95-.06,4.11-.09,6.41-.09,21.77,0,54.19,2.39,71.37,6.8,9.53,2.45,10.73,4.2,10.72,5.45,0,2.25-4.75,3.51-10.91,4.93l-.38.09c-4.91,1.13-10.24,4.2-10.35,7-.08,1.84,2.16,3.53,6.48,4.91,3.51,1.13,8.25,2.26,13.27,3.45,12.72,3,27.14,6.47,29.57,11.66a3.83,3.83,0,0,1-.1,3.47c-3.08,6.16-18.9,6.47-35.65,6.8-8.59.17-17.48.34-25.06,1.29C188.82,66.57,175.44,67.07,158.44,67.07Z"/><path class="cls-3" d="M147.15,10.34c20.67,0,53.65,2.26,71.24,6.79,19.55,5,6.71,7.82-.56,9.49S200,35,213.92,39.47s46.92,8.94,42.45,17.87-38,5-60.32,7.82c-7.84,1-21.88,1.41-37.61,1.41-29.1,0-64-1.47-76.33-3.64-19-3.35-44.69-16.76-21.23-22.34a312.3,312.3,0,0,1,62-8.38c20.66-.67,16.76-4.47,9.5-8.94S121.2,11,140.75,10.43c2-.06,4.1-.09,6.4-.09m0-1h0c-2.31,0-4.47,0-6.42.09-9.14.26-14.23,2.13-15.15,5.55-.76,2.84,1.58,6.26,6.27,9.14,4.91,3,5.46,4.18,5.35,4.6s-1.21,2.07-14.35,2.49a312.38,312.38,0,0,0-62.2,8.41c-6.82,1.62-10.24,4.1-10.14,7.36C50.72,54.07,69,61.62,81.93,63.91s49.09,3.66,76.51,3.66c17,0,30.42-.5,37.73-1.41,7.56-1,16.43-1.12,25-1.29,17.64-.34,32.87-.64,36.09-7.08a4.3,4.3,0,0,0,.1-3.9c-2.53-5.41-16.44-8.73-29.91-11.93-5-1.2-9.74-2.32-13.23-3.44-4-1.29-6.2-2.86-6.13-4.42.08-2,4.19-5.17,10-6.5l.38-.09c6.59-1.52,11.26-2.8,11.3-5.41,0-1.52-1.29-3.42-11.1-5.94C201.42,11.73,169,9.34,147.15,9.34Z"/><g class="cls-4"><path class="cls-5" d="M93.09,26.07C69.26,38.73,58.83,56.6,94.58,56.6s98.31,2.23,133.31,1.49,38,9.68,38,9.68L111,90.11l-67-11.17L0,31.28Z"/><path class="cls-6" d="M166.08,2.23C149,7.45,149.69,27.56,181,25.32s23.83-9.68,45.43-6S201.08,0,201.08,0Z"/></g></g></g></svg>