<svg xmlns="http://www.w3.org/2000/svg" xmlns:xlink="http://www.w3.org/1999/xlink" viewBox="0 0 157.91 53.15"><defs><style>.cls-1{fill:none;}.cls-2{fill:#fff2cf;}.cls-3{fill:#c18b5d;}.cls-4{clip-path:url(#clip-path);}.cls-5{fill:#e8cb9f;}.cls-6{fill:#fff7e6;}</style><clipPath id="clip-path"><path class="cls-1" d="M36.71,33.33c-9.49,1.11-27.37,2.23-14.52,9.49S64.08,50.64,92,48.41s58.09-3.91,61.44-7.26,8.38-6.15-7.82-8.94-26.25-3.35-19.55-6.7,8.38-5.59-5.59-6.15-73.17-2.23-79.87-.56S47.88,27.74,44,30A45.47,45.47,0,0,1,36.71,33.33Z"/></clipPath></defs><title>Asset 6</title><g id="Layer_2" data-name="Layer 2"><g id="Layer_1-2" data-name="Layer 1"><path class="cls-2" d="M65,50.07c-20.26,0-35.14-2.36-43-6.81-3.52-2-5-3.65-4.7-5.2.61-2.94,7.63-3.94,16.75-4.93l2.61-.29a46.3,46.3,0,0,0,7.12-3.3c.36-.2.43-.4.45-.53.13-.89-1.41-2.51-2.76-3.93-1.8-1.9-3.5-3.69-3.07-5.18.22-.76.93-1.27,2.16-1.58,2-.49,8.43-.74,19.21-.74,20.44,0,51.36.9,60.8,1.28s10.83,1.46,11.07,2.58-1.22,2.49-5.28,4.51c-1.87.94-1.83,1.37-1.83,1.39.16,1,6.58,2,12.79,3,2.55.4,5.39.85,8.45,1.38,7.58,1.3,11.06,2.66,11.62,4.52.45,1.51-1,2.87-2.54,4.31-.33.31-.67.63-1,1-2.93,2.93-23.79,4.51-48,6.34-4.57.35-9.22.7-13.8,1.07-9.63.77-18.74,1.16-27.09,1.16Z"/><path class="cls-3" d="M59.71,18.08c20.6,0,51.25.9,60.78,1.28,14,.56,12.29,2.8,5.59,6.15s3.35,3.91,19.55,6.7,11.17,5.59,7.82,8.94-33.52,5-61.44,7.26c-9.1.73-18.31,1.16-27.05,1.16-18.08,0-34.11-1.85-42.77-6.75-12.85-7.26,5-8.38,14.52-9.49A45.47,45.47,0,0,0,44,30c3.91-2.24-10-9.5-3.35-11.18,2.13-.53,9.52-.72,19.09-.72m0-1c-11,0-17.3.25-19.33.75a3.1,3.1,0,0,0-2.52,1.93c-.51,1.76,1.28,3.66,3.18,5.66,1,1.07,2.73,2.87,2.63,3.51,0,0-.08.11-.19.18a46.08,46.08,0,0,1-7,3.24l-2.56.28c-9.63,1-16.5,2-17.18,5.33-.37,1.8,1.2,3.62,4.95,5.73,8.07,4.56,22.62,6.88,43.26,6.88,8.36,0,17.49-.39,27.13-1.17l13.8-1.06c28-2.12,45.35-3.57,48.26-6.49l1-.93c1.58-1.48,3.21-3,2.67-4.82-.63-2.1-4.1-3.51-12-4.88-3.07-.52-5.94-1-8.47-1.38-5.41-.85-11-1.73-12.23-2.55a6.3,6.3,0,0,1,1.43-.89c3.79-1.89,5.91-3.33,5.54-5.06-.34-1.57-2.39-2.61-11.54-3-8.23-.33-39.19-1.28-60.82-1.28Z"/><g class="cls-4"><path class="cls-5" d="M18.84,43.57C33.73,48,59.05,42.08,69.11,45.06s38,3.72-1.49,6.7-53.25.74-64.79-2.61S18.84,43.57,18.84,43.57Z"/><path class="cls-6" d="M109,7.22c-17.2,5.15-61.26,3.09-38.69,10.3S124,34,131.56,22.68,130.48,0,130.48,0Z"/></g></g></g></svg>