<svg xmlns="http://www.w3.org/2000/svg" xmlns:xlink="http://www.w3.org/1999/xlink" viewBox="0 0 338.16 172.64"><defs><style>.cls-1{fill:none;}.cls-2{fill:#fff2cf;}.cls-3{fill:#c18b5d;}.cls-4{fill:#fff7e6;}.cls-5{clip-path:url(#clip-path);}.cls-6{fill:#e8cb9f;}</style><clipPath id="clip-path"><path class="cls-1" d="M114.54,64.64c36.57,5.22,36.13-7.23,28.9-14.46s-19.27-19.27,11.25-20.87,81.09,5.62,98,9.63,12,11.24-2.41,16.87S220.53,68.65,247,73.47s47.37,24.09,22.48,25.7-134.9.8-161.4.8S39.86,96.76,40.67,86.32,69.57,58.21,114.54,64.64Z"/></clipPath></defs><title>Asset 9</title><g id="Layer_2" data-name="Layer 2"><g id="Layer_1-2" data-name="Layer 1"><path class="cls-2" d="M189.41,100.67c-20.88,0-41.43-.08-57.95-.14-10.07,0-18.25-.06-23.35-.06C87,100.47,49.29,98.26,41.61,90a4.77,4.77,0,0,1-1.44-3.68c.75-9.82,22.27-23.51,55.61-23.51a134.16,134.16,0,0,1,18.83,1.37,108.57,108.57,0,0,0,15.19,1.24c11.83,0,15.57-3,16.62-5.58s-.15-6.09-3.33-9.26c-4.29-4.29-10.16-10.16-8.34-14.91,1.52-4,8-6.2,19.91-6.82,2.9-.15,6.08-.23,9.46-.23,31,0,74.16,6.43,88.64,9.88,7.14,1.7,10.87,4.07,11.07,7,.24,3.48-4.52,7.31-13.41,10.76-5.31,2.06-17.73,6.9-17.37,10.72.16,1.59,2.72,3.93,14.07,6,17.59,3.2,34.45,13.43,34,20.66-.14,2.41-2.27,5.42-11.62,6C259.06,100.34,232.85,100.67,189.41,100.67Z"/><path class="cls-3" d="M164.12,29.08c30.61,0,73.31,6.24,88.53,9.86,16.86,4,12,11.25-2.41,16.87S220.53,68.65,247,73.47s47.37,24.09,22.48,25.7c-12.45.8-46.17,1-80.1,1s-68-.2-81.3-.2c-26.49,0-68.25-3.21-67.44-13.65.68-8.9,21.21-23,55.11-23a132.43,132.43,0,0,1,18.76,1.37,110,110,0,0,0,15.26,1.24c21,0,19.67-9.66,13.64-15.69-7.22-7.23-19.27-19.28,11.25-20.88,3-.16,6.13-.23,9.43-.23m0-1c-3.39,0-6.58.08-9.49.23-12.09.64-18.75,3-20.35,7.14-1.93,5,4.07,11.06,8.46,15.44,2.33,2.34,4.41,5.86,3.22,8.72-1.41,3.4-7.15,5.27-16.16,5.27a109,109,0,0,1-15.12-1.23,133.57,133.57,0,0,0-18.9-1.38c-33.62,0-55.34,14-56.11,24a5.27,5.27,0,0,0,1.57,4.06c9.6,10.37,61,10.67,66.87,10.67,5.1,0,13.15,0,23.35.06,16.52.06,37.07.14,57.95.14,43.45,0,69.67-.33,80.16-1,9.71-.62,11.93-3.88,12.08-6.49.44-7.59-16.3-17.88-34.45-21.18-12-2.19-13.56-4.61-13.65-5.55-.33-3.44,12.75-8.53,17-10.2,11.68-4.54,13.91-8.63,13.73-11.27-.22-3.22-4.07-5.74-11.45-7.5-14.5-3.45-57.76-9.89-88.76-9.89Z"/><path class="cls-4" d="M115.74,73.07c-16.8-1.4-16.86,6.42-3.21,8s59.42-7.23,47.38-8.83S125.38,73.87,115.74,73.07Z"/><g class="cls-5"><path class="cls-6" d="M250.24,55.81c-25.3,6-50.19,17.26-17.27,18.87s45,4.81,51.39,8.83-11.24,32.12-37.74,28.9-132.48-12.84-155-20.87S53.11,78.69,74.79,62.63s57-.8,68.25-4-8-26.5,5.62-29.71S110.12,0,110.12,0L7.34,64.24S-3.1,143.73.92,145.34s173.44,27.3,173.44,27.3l155-47.38,8.83-59.42Z"/></g></g></g></svg>