<svg xmlns="http://www.w3.org/2000/svg" xmlns:xlink="http://www.w3.org/1999/xlink" viewBox="0 0 282.49 93.84"><defs><style>.cls-1{fill:none;}.cls-2{fill:#fff2cf;}.cls-3{fill:#c18b5d;}.cls-4{clip-path:url(#clip-path);}.cls-5{fill:#fff7e6;}.cls-6{fill:#e8cb9f;}</style><clipPath id="clip-path"><path class="cls-1" d="M150.25,15.83c5.9-3.63-20.48-10.06,11.54-11.18s48,1.87,44.69,7.82-14.15,7.45-14.15,8.94,28.3.37,38.72,0,16.76,4.47,11.55,10.43-17.88,4.09-10.8,6.33,30.53,2.6,41.33,7.82,15.27,12.29-12.66,12.29-97.93,1.11-125.12,1.48-71.49,1.87-87.5-1.11-22.72-5.59-5.59-11.92,36.5-1.12,41.34-4.84S71.31,38.17,67.21,33.7s2.24-6.33,21.23-11.17S145.41,18.8,150.25,15.83Z"/></clipPath></defs><title>Asset 10</title><g id="Layer_2" data-name="Layer 2"><g id="Layer_1-2" data-name="Layer 1"><path class="cls-2" d="M84.79,61c-18.31,0-30.42-.6-37-1.83-10-1.86-15.82-3.45-16-6-.17-2,3-4.11,10.37-6.83,8.19-3,16.78-3.43,24.11-3.43,1.51,0,3,0,4.35,0l3.59,0h0c4.4,0,7.64-.23,9.15-1.4.45-.34.7-.66.66-.86-.18-.84-3.63-1.67-6.4-2.33-4.09-1-8.73-2.11-10.71-4.26-1.12-1.23-1.52-2.32-1.22-3.34.89-3,8-4.91,22.69-8.66,10.34-2.63,26.46-3.52,39.4-4.23,10.82-.6,20.17-1.11,22.28-2.41.41-.26.64-.52.65-.79.06-.8-1.36-2-2.61-3-1.71-1.41-3.33-2.74-2.86-4.14s2.8-2.84,16.61-3.33c4.4-.15,8.59-.23,12.43-.23,13.46,0,30.09,1,32.8,5.62a3,3,0,0,1-.1,3.18c-2.23,4-7.53,6-11,7.34a21.76,21.76,0,0,0-2.81,1.2c.75.18,2.86.4,8.87.4,8.34,0,20.1-.42,27.12-.68l2-.07,1.13,0c6.25,0,11,1.9,12.38,5,.62,1.35.84,3.55-1.58,6.32-2.94,3.36-8,4.3-11,4.85l-1.24.25c.27.1.66.24,1.23.42,2.6.82,7.51,1.39,13.19,2.06,9.52,1.11,21.37,2.49,28.21,5.79,3.52,1.7,9.32,5,8.57,8.3s-8,4.94-21.45,4.94c-22.5,0-72.17.72-105,1.2l-20.07.28-15,.26C109.18,60.73,96.48,61,84.79,61Z"/><path class="cls-3" d="M174.21,4.42c23.68,0,35.15,2.92,32.27,8.05-3.35,6-14.15,7.45-14.15,8.94,0,.56,4,.75,9.6.75,9.2,0,22.63-.52,29.12-.75l1.12,0c9.75,0,15.45,4.7,10.43,10.45-5.22,6-17.88,4.09-10.8,6.33s30.53,2.6,41.33,7.82,15.27,12.29-12.66,12.29-97.93,1.11-125.12,1.48c-14.31.2-33.38.71-50.55.71-15.45,0-29.37-.41-36.95-1.82-16-3-22.72-5.59-5.59-11.92,8.07-3,16.63-3.4,23.94-3.4,2.88,0,5.56.07,7.94.07,4.41,0,7.79-.23,9.46-1.51,4.84-3.72-12.29-3.72-16.39-8.19s2.24-6.33,21.23-11.17,57-3.73,61.81-6.7c5.9-3.63-20.48-10.06,11.54-11.18,4.45-.15,8.6-.23,12.42-.23m0-1h0c-3.85,0-8,.08-12.45.24-13.29.46-16.43,1.79-17.06,3.66s1.24,3.23,3,4.69c.87.71,2.47,2,2.44,2.56,0,.06-.1.2-.42.4-2,1.24-11.74,1.77-22,2.34-13,.71-29.12,1.6-39.5,4.25-16.33,4.16-22.12,5.89-23,9-.36,1.2.08,2.45,1.33,3.81,2.09,2.27,6.8,3.41,11,4.41,2.15.52,5.35,1.29,6,1.92a2.35,2.35,0,0,1-.42.4c-1.48,1.14-5.13,1.3-8.85,1.3-1.13,0-2.33,0-3.58,0s-2.85,0-4.36,0c-7.37,0-16,.41-24.28,3.46-7.8,2.88-10.9,5-10.7,7.34.22,2.61,4.37,4.25,16.45,6.5,6.64,1.24,18.78,1.84,37.13,1.84,11.69,0,24.39-.24,35.6-.45l15-.26,20-.28c32.88-.48,82.57-1.2,105.08-1.2,20.72,0,21.64-4,21.94-5.32.78-3.43-4.38-6.72-8.85-8.87-6.91-3.34-18.8-4.73-28.36-5.84a106.81,106.81,0,0,1-12.48-1.86c3-.56,7.79-1.65,10.63-4.89,2.6-3,2.33-5.37,1.66-6.86-1.47-3.24-6.39-5.25-12.84-5.25l-1.15,0-2,.07c-7,.26-18.78.68-27.11.68-3.6,0-5.77-.08-7.07-.18l1.18-.46c3.58-1.36,9-3.43,11.31-7.56a3.49,3.49,0,0,0,.09-3.67C205.17,5.4,194,3.42,174.21,3.42Z"/><g class="cls-4"><path class="cls-5" d="M197.54,0c6.7,7.45-66.28,19.36-41,28.3s85.64,3.72,91.6-10.43S197.54,0,197.54,0Z"/><path class="cls-6" d="M62.74,42.45c-8.19,3.72,0,16.38,52.13,14.15s110.22-2.23,117.67,5.21-157.88,32-157.88,32L6.14,68.52S-18.43,29,30.72,17.13,118.6,6.7,118.6,6.7s-6.7,7.45-19.36,11.92-32,8.94-23.09,15.64S62.74,42.45,62.74,42.45Z"/></g></g></g></svg>