<svg xmlns="http://www.w3.org/2000/svg" xmlns:xlink="http://www.w3.org/1999/xlink" viewBox="0 0 777.52 222.74"><defs><style>.cls-1{fill:url(#linear-gradient);}.cls-2{fill:url(#linear-gradient-2);}</style><linearGradient id="linear-gradient" x1="365.65" y1="180.71" x2="421.47" y2="-42.55" gradientUnits="userSpaceOnUse"><stop offset="0" stop-color="#fff2cf"/><stop offset="1" stop-color="#fff2cf" stop-opacity="0"/></linearGradient><linearGradient id="linear-gradient-2" x1="757.33" y1="278.63" x2="813.14" y2="55.37" xlink:href="#linear-gradient"/></defs><title>Asset 15</title><g id="Layer_2" data-name="Layer 2"><g id="Layer_1-2" data-name="Layer 1"><path class="cls-1" d="M23.47,21.77C89.33,35.16,121.71,11.72,134,7.26S138.45,24,167.47,29.58s36.84-8.93,44.65-11.16,10,22.32,92.66,32.37S464.4,19.53,478.92,22.88s71.44,8.93,96.55,60.84-1.67,70.33,13.4,72,38.51-45.21,51.91-38.51S661.93,163,745.12,171.1c18.42,1.78,28,3.42,32.4,5.47V0H0C9.63,9.21,22,21.47,23.47,21.77Z"/><path class="cls-2" d="M777.52,186.47c-5.06,7.12-13,18,0,36.27Z"/></g></g></svg>