<svg xmlns="http://www.w3.org/2000/svg" viewBox="0 0 711.22 703.91"><defs><style>.cls-1{fill:#fbefe2;}.cls-1,.cls-2{stroke:#904a09;stroke-miterlimit:10;}.cls-2{fill:none;stroke-width:0.75px;}</style></defs><title>Asset 18</title><g id="Layer_2" data-name="Layer 2"><g id="Layer_1-2" data-name="Layer 1"><path class="cls-1" d="M708.59,670.8c3,25.06-6.28,34.29-39.05,32.35s-28.24-2.59-74.18-3.24-49.82,3.75-83.46,3.49-144.93-8.66-195.4-8-148.16,0-175.34.65-55-2.59-83.46-.65-49.17,4.9-52-2.69-1.44-55.9-1.72-72.29-4.6-82.53-2.3-92.3.66-47.45-.68-63.27,2.83-23.72,3.69-38.38.44-82.06-.43-116.3S1.48,132.7.69,101.65s1.22-61,0-75.27S8.53,6.32,11.76,5.68,81,3.74,122.4,5.68,203.86,8.26,223.63,7,304.86.5,340.44.5,397.38,2.44,431,4.38,672.36-.79,693.71,6.32,706,40,708.59,107.26s2.59,107.4,0,132.63,2.59,49.17,1.94,62.11-6.47,53.06-3.88,87.35,4.64,125.52,3.94,166.28S706.65,654.62,708.59,670.8Z"/><path class="cls-2" d="M45.1,23.38c39.82,0,101-4.46,122.8-2.79s35.16.56,65.3,2.24,117.76-1.68,147.9.55,30.7-1.67,91,2.79,110-5.58,165.77-4.46,47.44,3.91,50.79,36.84,7.81,68.09,5.58,91-6.7,10.61-7.81,43,8.37,102.7,6.69,134,0,139.54,2.79,176.93-5.58,121.68-6.69,142.33,3.35,37.39-24,38.51-171.91-8.37-209.31-7.81,22.89,2.79-68.65,1.67S222,688.68,192.45,686.45s-126.14-10-147.9-10.6-27.91-2.79-25.68-28.47,12.28-77,6.7-113.86-3.35-59.16-1.67-93.21S20,385.62,20.55,366.64s-3.91-117.21,0-148.47,3.9-114.41,3.9-142.88S12.17,23.38,45.1,23.38Z"/></g></g></svg>