<svg xmlns="http://www.w3.org/2000/svg" viewBox="0 0 274.06 252.12"><defs><style>.cls-1{fill:#4f927d;}.cls-2,.cls-3{fill:none;stroke:#333;}.cls-2{stroke-miterlimit:10;}.cls-3{stroke-linecap:round;stroke-linejoin:round;}</style></defs><title>Asset 11</title><g id="Layer_2" data-name="Layer 2"><g id="Layer_1-2" data-name="Layer 1"><path class="cls-1" d="M199.55,52.05s1.89-41.76-12.34-47.45S151.14.8,151.14.8s13.92,13,16.77,25.94,6,12.34-7-1.26-20.56-14.87-32.9-14.87-20.25,10.12-21.83,13S115.08,37.82,122,51.1s16.45,28.48,12.65,36.7-4.43-1.26-13.28-19S87.87,35.92,70.79,40.35,34.72,57.43,34.72,61.86s17.1,2.89,37.33,12.65c27.53,13.29,19.62,26.58,16.45,34.8s-11.38-18.82-28.94-24-28.47-2.37-33.69,0S5.94,107.1,3.09,122.76s-5.22,19.93,0,17.08,21.35-18,36.54-17.56,26.1,5.22,26.1,10.44,4.74,7.12-10.44,7.12S9.73,139.37,5,149.33.24,194.89.24,200.11s8.54-2.37,16.61-8.07,18-14.23,28.47-17.08,16.29,1.9,13.92,10-18.19,11.39-30.53,11.39S1.19,210.07,2.14,218.14,15,248,16.85,250.88s18.19-7.59,24.83-10,13.61-.95,17.4-14.71,6.65-35.12,12.82-35.12,4.27,13.29.94,25.63S59.56,242.34,62.4,242.34s39.39-6.64,46-22.3,10.92-33.22,1.43-45.08-1.27-22.78,6.33-23.25,7,18,7.43,24.2S121.25,219.56,125,220s32.75-.48,36.54-13.29,4.27-31.32-3.32-49.82-8.07-22.78-5.22-24.21,26.1,19.46,26.58,37,.15,19,9.64,19.93,43,1,44-29.9S210,117.54,200,109.47s15.66-2.37,22.3,1.43,18,22.77,20.88,33.69,8.07,16.13,12.34,7.12,27.21-61.22,4-81.15-24.36-37.49-34.33-34.64S202.87,42.56,199.55,52.05Z"/><path class="cls-2" d="M200.18,52.05s1.9-41.76-12.34-47.45S151.78.8,151.78.8s13.92,13,16.76,25.94,6,12.34-7-1.26S141,10.61,128.68,10.61s-20.25,10.12-21.83,13,8.86,14.24,15.82,27.52,16.45,28.48,12.66,36.7-4.43-1.26-13.29-19S86,30.22,68.89,34.65,35.36,57.43,35.36,61.86s18.35.63,37.33,12.65S93.57,94.76,90.4,103,77.75,90.49,60.19,85.27,27.92,78.15,22.7,80.53s-16.13,26.57-19,42.23-5.22,19.93,0,17.08,21.35-18,36.54-17.56,26.1,5.22,26.1,10.44,4.74,7.12-10.44,7.12-45.56-.47-50.3,9.49S.87,194.89.87,200.11s8.55-2.37,16.61-8.07S35.51,177.81,46,175s9.5,3.32,7.12,11.39-11.39,10-23.72,10S1.82,210.07,2.77,218.14,15.58,248,17.48,250.88s17.09-3.32,23.73-5.69,14.71-5.22,18.51-19,6.64-35.12,12.81-35.12,4.27,13.29,1,25.63S60.19,242.34,63,242.34s39.38-6.64,46-22.3S120,186.82,110.49,175s-6.17-17.08,1.42-17.56,11.87,12.34,12.34,18.51-2.37,43.65,1.43,44.13,32.74-.48,36.54-13.29,4.27-31.32-3.33-49.82-8.06-22.78-5.22-24.21,26.1,19.46,26.58,37-3.8,24.2,5.69,25.15,47-4.27,47.93-35.12-23.25-42.23-33.22-50.3,15.66-2.37,22.31,1.43,18,22.77,20.88,33.69,8.06,16.13,12.33,7.12,31.32-66.44,8.07-86.37S235.77,33.07,225.8,35.92c-7.1,2-15.4,4.54-20.79,9.24A16.33,16.33,0,0,0,200.18,52.05Z"/><path class="cls-3" d="M17.48,250.88a347.29,347.29,0,0,1,49-64.88c30.37-31.32,73.05-96.5,113.86-118.33"/></g></g></svg>