<svg xmlns="http://www.w3.org/2000/svg" viewBox="0 0 307.93 221.68"><defs><style>.cls-1{fill:#4f927d;}.cls-2,.cls-3{fill:none;stroke:#333;}.cls-2{stroke-miterlimit:10;}.cls-3{stroke-linecap:round;stroke-linejoin:round;}</style></defs><title>Asset 24</title><g id="Layer_2" data-name="Layer 2"><g id="Layer_1-2" data-name="Layer 1"><path class="cls-1" d="M38.52,108.92S8.47,79.87,14.9,66,38.51,38.43,38.51,38.43s-1.21,19,5.63,30.37,4.1,13.09,4.19-5.7S53.06,38.17,62,29.69,83.7,23.15,86.8,24.13,90.14,40.56,94.21,55s7.6,32,16,35.36,2.35-4-3.38-22.92S108.61,20.5,124.07,12s38-12.35,41-9.13-10.44,13.84-18.44,34.84c-10.88,28.56,4,32.78,11.94,36.59s-4.65-21.51,4.53-37.36,19.06-21.28,24.49-23.14,29.48,2.18,42.3,11.61,17.48,10.9,11.73,12.41S213.71,39.36,203,50.14s-15.39,21.72-11.8,25.51,1.44,8.43,12.47-2S236.46,42,246.75,46s34.74,29.85,38.32,33.64-7.83,4.14-17.61,5.55-22.88,2-32.43,7.13-10.54,12.57-3.27,16.81,21-4.22,30-12.69,29.46-8.9,34.31-2.39S307.3,124.59,307.87,128s-18.43,7-24.89,9.81-10.54,8.65-22.75,1.26-29-21-33.43-16.73,6,12.59,16.91,19.28S271,151.09,268.89,153s-33.19,22.23-48.77,15.41-30.75-16.65-32-31.79-14.72-17.43-20.56-12.56,7.32,17.89,11.21,22.7,31.71,30.1,29.28,33S183.92,202,172.36,195.29s-24.61-19.83-31.8-38.5-9.78-22.09-12.83-21.17-5.61,32.06,6.11,45.15,12.92,13.91,6.67,21.11S109.89,232.12,88,210.36,75.91,163.69,77.61,151s-13,9-15.23,16.35,2.54,28.94,8,38.83,5.22,17.27-4.08,13.65S4.45,194,7.66,163.54s-8-44,1.16-48.75S29.59,104.3,38.52,108.92Z"/><path class="cls-2" d="M38.06,109.35S8,80.3,14.44,66.39,38.05,38.86,38.05,38.86s-1.21,19,5.63,30.37,4.1,13.1,4.19-5.7,4.73-24.93,13.7-33.4,21.67-6.55,24.77-5.57S89.68,41,93.75,55.43s7.6,32,16,35.37,2.35-4-3.38-22.92-.3-52.83,15.16-61.34,40-6.48,43.06-3.26-12.9,13.07-18.44,34.84S144.89,67.18,152.84,71s.61-17.77,9.79-33.62,18.57-27.34,24-29.2,30,8.23,42.8,17.66,17.48,10.9,11.73,12.42-27.9,1.56-38.61,12.33-15.39,21.72-11.8,25.51,1.44,8.44,12.47-2S236,42.46,246.29,46.44,281,76.29,284.61,80.09s-7.83,4.14-17.61,5.54-22.88,2-32.43,7.14-4.61,8.93,2.65,13.16,15.12-.57,24.09-9.05,29.46-8.9,34.31-2.38,11.22,30.53,11.79,33.9-14.69,9.32-21.15,12.16-14.28,6.31-26.49-1.09-28.95-21-33.43-16.72,6,12.59,16.91,19.27,27.25,9.5,25.19,11.46-33.2,22.22-48.78,15.4-30.75-16.65-32-31.79-7.24-16.65-13.09-11.78-.15,17.11,3.74,21.92,31.71,30.11,29.28,33.06-24.13,22.14-35.69,15.43-24.61-19.83-31.8-38.49-9.78-22.1-12.83-21.18-5.61,32.07,6.11,45.16,19.38,15,13.13,22.19-37.08,29.16-58.95,7.39-12.11-46.67-10.41-59.37-13,9-15.23,16.35,2.54,28.94,8,38.83,5.22,17.26-4.08,13.64S-2.59,193.47.63,163s-1.47-43,7.73-47.78c6.55-3.41,14.31-7.28,21.46-7.56A16.24,16.24,0,0,1,38.06,109.35Z"/><path class="cls-3" d="M307.41,128.4a346.83,346.83,0,0,0-80.18-13.5c-43.59-1.91-119.37-20-164-7.81"/></g></g></svg>