<svg xmlns="http://www.w3.org/2000/svg" viewBox="0 0 226.11 169.01"><defs><style>.cls-1{fill:#7db3a2;}.cls-2{fill:none;stroke:#666;stroke-miterlimit:10;}</style></defs><title>Asset 12</title><g id="Layer_2" data-name="Layer 2"><g id="Layer_1-2" data-name="Layer 1"><path class="cls-1" d="M200.12,87.67s24-19.53,20.15-30.2-15.67-21.8-15.67-21.8-.31,14.08-6.08,22-3.86,9.41-2.73-4.47-1.91-18.69-8-25.51-15.57-6.2-17.93-5.67-3.5,11.91-7.41,22.3-7.63,23.12-14.05,25.08-1.48-3.07,3.94-16.7,1.66-34.74-9.2-42S115.94-.77,113.49,1.41s6.83,10.87,11.4,26.86c6.22,21.76-5,23.94-11.13,26.24s4.79-15.57-1-27.84S100.07,9.76,96.19,8.05,74.3,7.79,64.25,13.93s-13.59,6.93-9.45,8.42,20.49,2.91,27.71,11.54,10,17,7.09,19.57S88,59.59,80.52,51.2s-22.18-25.42-30-23.13S23,47.89,20.09,50.47s5.52,3.55,12.65,5.2S49.49,58.62,56.21,63s7,9.94,1.35,12.6S42.3,71.15,36.22,64.33,15.05,55.9,11.06,60.4.85,82.21.22,84.66,13.37,91,18,93.48s7.23,7,16.7,2.37S57.34,82.22,60.38,85.63s-5.24,8.9-13.69,13.15S26,104.06,27.38,105.63s23.08,18.5,35,14.45S86.12,109.75,88,98.66s12-11.92,16-8-6.53,12.73-9.71,16S69,126.93,70.57,129.26,87,147.12,95.92,142.91s19.41-13.07,25.9-26.39,8.61-15.68,10.8-14.81,2.11,24-7.36,32.93-10.41,9.44-6.26,15.15,20.67,24.25,38.19,9.57,11.88-33.66,11.43-43.14,9,7.49,10.2,13-3.7,21.19-8.33,28.14-4.94,12.41,2.15,10.33,47.23-15.13,46.79-37.8,8.72-31.93,2.23-36S207,84.83,200.12,87.67Z"/><path class="cls-2" d="M200.43,88s24-19.53,20.15-30.2S204.91,36,204.91,36s-.31,14.08-6.08,22-3.85,9.4-2.73-4.47-1.91-18.69-8-25.51-15.57-6.2-17.92-5.67-3.51,11.91-7.42,22.3-7.63,23.12-14.05,25.08-1.48-3.07,3.94-16.7,3.57-38.95-7.3-46.2S116.25-.42,113.8,1.76s8.69,10.45,11.4,26.86-.9,21.52-7,23.82.68-13.15-5.09-25.42S101.13,5.68,97.25,4,74.61,8.14,64.56,14.28,51,21.21,55.12,22.7s20.48,2.91,27.7,11.54,10,17,7.09,19.57-1.59,6.13-9.07-2.26-22.19-25.42-30-23.13-27.52,19.82-30.4,22.4,5.52,3.55,12.64,5.2S49.8,59,56.52,63.34s2.84,6.88-2.79,9.54-11.12-1.38-17.2-8.2-21.16-8.43-25.16-3.93S1.17,82.56.53,85s10.25,7.81,14.83,10.31S25.5,100.88,35,96.2,57.65,82.57,60.69,86,55.46,94.88,47,99.13,26.29,104.41,27.69,106s23.08,18.5,35,14.45S86.44,110.1,88.32,99s6.4-11.83,10.4-7.87-1,12.64-4.15,15.94-25.3,20.2-23.69,22.53,16.4,17.86,25.35,13.65,19.41-13.07,25.9-26.39,8.61-15.68,10.8-14.81,2.11,24-7.36,32.93-15.24,9.82-11.09,15.54,25.5,23.86,43,9.18,11.88-33.66,11.43-43.14,9,7.49,10.2,13-3.7,21.19-8.33,28.14-4.94,12.41,2.15,10.33,52.15-15.43,51.7-38.1,3.81-31.63-2.67-35.74c-4.62-2.92-10.1-6.28-15.36-6.94A12.1,12.1,0,0,0,200.43,88Z"/><path class="cls-2" d="M.53,85a257.36,257.36,0,0,1,60-4.88C92.81,81.48,149.86,73,182,84.76"/></g></g></svg>