<svg xmlns="http://www.w3.org/2000/svg" viewBox="0 0 183.88 205.19"><defs><style>.cls-1{fill:#7db3a2;}.cls-2{fill:none;stroke:#666;stroke-miterlimit:10;}</style></defs><title>Asset 25</title><g id="Layer_2" data-name="Layer 2"><g id="Layer_1-2" data-name="Layer 1"><path class="cls-1" d="M39.53,150.71S8.67,153,4.15,142.6.57,116,.57,116s9.89,10,19.56,11.85S29.39,132,19,122.72s-11.45-14.9-11.71-24,7.06-15.2,9.13-16.44S27.19,88.5,37.17,93.37,58.6,104.94,64.6,102s-1-3.25-14.33-9.43S25.2,68.41,28.11,55.67,40,28.61,43.26,28.52s2.5,12.59,10.17,27.35C63.85,76,73.51,69.82,79.53,67.3s-14.17-8-18.41-20.9-2.37-21-.72-24.94S76.12,6.24,87.65,3.8s14.64-4.29,12.65-.37S87.41,19.62,88.09,30.85s4.42,19.21,8.28,19.09,5.37,3.36,5-7.87-1.33-33.71,5.94-37.44S141,.15,144.84,0s-1.57,6.38-5.62,12.47-10.15,13.65-12,21.44S129,46,134.86,44s8-13.71,7.78-22.84S152.23.52,158.23,1.05s22.4,8.84,24.54,10.19-5.23,13.62-6.84,18.59S175.52,39.92,165.42,43s-25.85,5.67-25.72,10.24,9.93,2.87,19,.15S177.37,43,177.43,45.14s-4.07,29.29-15.52,34.54-24.35,8.79-33.34,2-16.88-.45-17.07,5.18,13.5,4.77,18.07,5,32.26-2.7,32.69.1.36,24.25-9,27.33-23.08,3.83-36.94-1.39-17-5.48-18-3.34,15,18.9,28,18.87,14-.29,15,6.71S142.79,172,120,173.34,88.23,157,82,149.83s-1.42,11.64,1.53,16.48S100.82,179.17,109,181s12.11,5.63,5.53,9-44.72,21.45-60,4.67S26.25,177.46,28.14,170,32.58,153.38,39.53,150.71Z"/><path class="cls-2" d="M39.55,151.18s-30.87,2.3-35.39-8.11S.58,116.46.58,116.46s9.9,10,19.56,11.85,9.26,4.19-1.09-5.12-11.44-14.9-11.71-24S14.4,84,16.48,82.72,27.2,89,37.18,93.84s21.43,11.56,27.44,8.58-1-3.25-14.34-9.43S20.94,67.13,23.86,54.39,40,29.08,43.27,29s.86,13.56,10.17,27.35,15.43,15,21.45,12.5-9.52-9.09-13.76-22-6-23.73-4.31-27.64S76.14,6.71,87.67,4.27,102.31,0,100.31,3.9,87.42,20.09,88.1,31.32s4.42,19.2,8.28,19.09,5.37,3.36,5.05-7.88S100.1,8.83,107.37,5.1,141,.61,144.85.5,143.28,6.87,139.24,13s-10.15,13.65-12,21.44,2.67,7,8.59,5,7.13-8.64,6.86-17.77S152.25,1,158.24,1.52s22.4,8.84,24.55,10.19-2.09,12.71-3.71,17.68-3.55,11-13.65,14.1-25.85,5.67-25.71,10.24,9.92,2.87,19,.15,18.68-10.38,18.74-8.28-4.07,29.3-15.52,34.55-24.35,8.79-33.33,2-12.78-4.2-13,1.43,9.39,8.51,14,8.73,32.26-2.69,32.69.11.35,24.24-9.05,27.33-23.09,3.83-36.95-1.39-17-5.48-18-3.35,15,18.9,28,18.88,17.83-3.33,18.74,3.67-2.16,34.86-25,36.23S88.24,157.5,82.05,150.3s-1.42,11.64,1.54,16.48,17.24,12.86,25.38,14.73,12.11,5.62,5.53,9-48.5,24.6-63.74,7.82-24.5-20.38-22.6-27.82c1.35-5.29,3-11.49,6.39-15.58A12.13,12.13,0,0,1,39.55,151.18Z"/><path class="cls-2" d="M182.79,11.71a256.57,256.57,0,0,0-47,37.66C113.29,72.52,66,105.5,50.68,136.18"/></g></g></svg>