<svg xmlns="http://www.w3.org/2000/svg" viewBox="0 0 60.74 62.52"><defs><style>.cls-1{fill:#ffeed5;stroke:#b56743;stroke-miterlimit:10;}.cls-2{fill:#feb938;}</style></defs><title>logo-orange</title><g id="Layer_2" data-name="Layer 2"><g id="Layer_1-2" data-name="Layer 1"><path class="cls-1" d="M60.24,31.63c0,9-2.08,17.83-8.19,23.39-5.28,4.81-14,7-21.67,7-8.92,0-16.2-5-21.67-11.3C4.06,45.37.52,39.34.52,31.63c0-4.71-.3-8.38,1.58-12.36A33.19,33.19,0,0,1,12.46,7.33c5.11-3.47,12-3.8,17.92-6.08,7.72-3,15.71,3.4,21.12,8.9A30.56,30.56,0,0,1,60.24,31.63Z"/><path class="cls-2" d="M30.64,31.48c1.18-.63,2.81-2.83,3.49-3.77,1-1.39,2.36-4,4.93-7.54s6.11-8.26,6.11-10.25-5.06-3.5-8.41-4.09S32.94,4.5,32.55,9.07c-.36,4.17-1.58,16.15-2.1,20.62C30.39,30.14,30.24,31.69,30.64,31.48Z"/><path class="cls-2" d="M36.49,26.72c-1.57,1.19-6,6.66-4.14,4.76.59-.6,5.92-4.57,8.48-5.36a85.41,85.41,0,0,0,12.81-6.35c1.58-1.19.2-3-3.15-6.14s-3.94-1-5.13.59S38.07,25.53,36.49,26.72Z"/><path class="cls-2" d="M31.63,34.91c-.79-1.58-1.71,4.5-1.84,9-.12,4.17-1,9.59-1.18,11.57s-1,2.38,1.77,3.37,7.49-1.39,9.07-2.18-1.58-5.95-1.58-5.95S32.27,36.19,31.63,34.91Z"/><path class="cls-2" d="M46.15,43.57C41.22,40.4,31.37,32.86,32.35,35c1.37,3,6.11,13.09,6.71,15.67s1.38,4.43,2.95,4,6.18-2.18,7.76-5.55S51.08,46.75,46.15,43.57Z"/><path class="cls-2" d="M29.23,29.35c1.09,2.13,1.29-10.33,1.86-16.18s1.39-6.67-2.22-7.5S21,7.37,19.73,8.37s-.26,3.94,1.39,6S27.71,26.4,29.23,29.35Z"/><path class="cls-2" d="M55.16,21.49c-.33-.79-5.2,1.19-7.3,2.52s-9.26,3.9-10.32,5.09-5.88,2.94-4.6,3.37c.79.26,1.71-.07,3.42-.14s7,.33,12.75.2,6.44,1.46,7.16-2.31S55.48,22.29,55.16,21.49Z"/><path class="cls-2" d="M25.71,39.14c.21-1.56,4.13-5.73,2.84-5.38-.79.21-1.35,1-2.71,2S20,39.27,15.32,42.55s-6.06,2.31-4.58,5.84,4.12,4.07,4.83,4.55,3.95-3.23,4.94-5.48S25.51,40.71,25.71,39.14Z"/><path class="cls-2" d="M53.64,34.32c-1.84-.27-8.67-.4-11.36-.73A87,87,0,0,0,33,33.33c-1,0,5.45,3.63,7,4.82s10.52,5.43,11.63,6.28c1.68,1.27,3.52-5.07,3.65-5.87S55.48,34.58,53.64,34.32Z"/><path class="cls-2" d="M13.39,21.39S27.24,30,28.47,30.68c1.53.89-1.49-4.06-3.94-7.43s-5.09-9.2-6-11S18,9.75,15.19,10.45s-5.5,5.31-6.38,6.85S13.39,21.39,13.39,21.39Z"/><path class="cls-2" d="M29.92,34.91c.26-1.75-3,4.55-5.26,8.07S19.25,52.05,18,53.55s.29,1.49,2.37,3.57c1.31,1.33,4.56.4,6.3.66s1.45-7.4,1.45-7.4S29.71,36.33,29.92,34.91Z"/><path class="cls-2" d="M11.65,31.48c5.85-.09,18.19,1.42,16.17.14C25,29.86,17.39,25,15.1,23.74c-6.33-3.58-6.88-3.68-8-2.48a8.72,8.72,0,0,0-2,7.31C5.61,32.25,5.8,31.56,11.65,31.48Z"/><path class="cls-2" d="M20.47,37.81a87.89,87.89,0,0,0,7.88-4.92c.82-.54-6.55,0-8.52-.13S8.08,34.05,6.69,34c-2.1-.14-.16,6.18.17,6.91s2,3.42,3.72,2.62S18,39,20.47,37.81Z"/></g></g></svg>