<svg xmlns="http://www.w3.org/2000/svg" viewBox="0 0 51.5 45.73"><defs><style>.cls-1{fill:#60cb98;}.cls-2{fill:none;stroke:#666;stroke-linecap:round;stroke-linejoin:round;}</style></defs><title>logo-leave</title><g id="Layer_2" data-name="Layer 2"><g id="Layer_1-2" data-name="Layer 1"><path class="cls-1" d="M13.71,10.2s-.65-7.59,1.9-8.74A17.51,17.51,0,0,1,22.15.51S19.71,3,19.29,5.36s-1,2.29,1.26-.29,3.63-2.86,5.88-2.95a5,5,0,0,1,4.07,2.2C30.81,4.83,29,7,27.82,9.46s-2.78,5.3-2,6.78.8-.27,2.28-3.56,5.87-6.24,9-5.56,6.7,2.84,6.73,3.65-3.09.65-6.71,2.58c-4.91,2.63-3.37,5-2.74,6.46s1.94-3.51,5.1-4.59,5.17-.64,6.14-.25S49.39,18.8,50,21.63s1.09,3.6.12,3.12-4-3.13-6.79-2.93S38.65,23,38.69,23.91s-.82,1.33,2,1.22,8.3-.42,9.24,1.36,1.2,8.26,1.24,9.21-1.58-.37-3.09-1.34-3.39-2.46-5.31-2.91-3,.47-2.47,1.92,3.4,1.94,5.65,1.85S51,37.53,50.9,39s-2.11,5.54-2.44,6.08-3.37-1.25-4.59-1.63-2.49-.08-3.28-2.56-1.47-6.35-2.6-6.3-.68,2.45,0,4.68,2.61,4.57,2.09,4.59-7.22-.92-8.55-3.73-2.23-6-.59-8.2.06-4.16-1.33-4.19-1.13,3.34-1.17,4.47.75,7.93.06,8-6,.15-6.75-2.15A14,14,0,0,1,22,29c1.24-3.42,1.3-4.21.77-4.44s-4.61,3.73-4.57,6.93S18.32,35,16.6,35.2s-7.83.49-8.23-5.12,3.92-7.87,5.68-9.41-2.87-.32-4.05.42-3.12,4.28-3.56,6.29-1.35,3-2.2,1.39S-1.16,17.82,2.93,14s4.16-7,6-6.57S13,8.5,13.71,10.2Z"/><path class="cls-2" d="M13.6,10.21s-.66-7.6,1.89-8.74A17.65,17.65,0,0,1,22,.51S19.6,3,19.17,5.36s-1,2.29,1.26-.28,3.64-2.86,5.89-2.95a5,5,0,0,1,4.07,2.2c.31.51-1.51,2.66-2.68,5.13s-2.79,5.31-2,6.78S26.47,16,28,12.68s6.28-7.29,9.43-6.61,6.27,3.9,6.31,4.71S40.36,11,37,13.36s-3.66,3.84-3,5.31,2.21-2.37,5.38-3.45,5.82-1.53,6.79-1.14,3.14,4.73,3.77,7.56,1.1,3.59.13,3.11-4-3.13-6.79-2.93-4.72,1.14-4.68,2.1-.81,1.33,2,1.22,8.29-.43,9.23,1.35S51,34.76,51,35.71s-1.57-.37-3.09-1.35-3.39-2.46-5.31-2.9-1.7.67-1.21,2.13,2.15,1.73,4.39,1.64,5.12,2.3,5,3.78-2.12,5.54-2.44,6.07-3.14-.48-4.37-.86a4.52,4.52,0,0,1-3.51-3.32c-.79-2.48-1.47-6.35-2.59-6.31s-.68,2.46,0,4.68,2.61,4.57,2.1,4.59-7.23-.92-8.55-3.72-2.24-6-.6-8.2,1-3.16-.39-3.19-2.07,2.33-2.11,3.46.76,7.94.07,8-6,.16-6.76-2.15a14.07,14.07,0,0,1,.24-9.1c1.25-3.43,1.3-4.21.77-4.45S18.05,28.3,18.1,31.5s.87,4.38-.86,4.62-8.59-.43-9-6,3.93-7.87,5.68-9.41-2.87-.32-4,.42-3.12,4.29-3.56,6.3-1.35,3-2.19,1.38S-2.07,16.9,2,13.1,7,7,8.81,7.46A9.89,9.89,0,0,1,12.66,9,3,3,0,0,1,13.6,10.21Z"/><path class="cls-2" d="M48.35,45.08a63.52,63.52,0,0,0-9.41-11.46c-5.76-5.48-14-17-21.62-20.72"/></g></g></svg>