<svg xmlns="http://www.w3.org/2000/svg" viewBox="0 0 49.59 49.57"><defs><style>.cls-1{fill:#adadad;stroke:#474747;stroke-miterlimit:10;}.cls-2{fill:#474747;}.cls-3{fill:#fff;}</style></defs><title>Asset 16</title><g id="Layer_2" data-name="Layer 2"><g id="Layer_1-2" data-name="Layer 1"><g id="WuBgjC"><path class="cls-1" d="M45,11.3c-.08.19-.15.34-.22.49C44.18,13,43.61,14.25,43,15.47a1.26,1.26,0,0,0,0,1,3,3,0,0,0,2.58,2.43c.9.2,1.75.61,2.64.9a.64.64,0,0,1,.49.59,24.4,24.4,0,0,1,0,8.69.69.69,0,0,1-.53.63c-1.31.45-2.6.95-3.91,1.38-.41.13-.56.4-.76.74a3.05,3.05,0,0,0,.15,3.56c.24.35.32.81.57,1.14.93,1.24.62,2.24-.34,3.35a30.49,30.49,0,0,1-5.32,5,.6.6,0,0,1-.71,0c-1.21-.57-2.42-1.13-3.62-1.71a.83.83,0,0,0-.92,0,1.34,1.34,0,0,1-.46.2,3,3,0,0,0-2.38,2.63c-.18.71-.52,1.38-.72,2.09a.88.88,0,0,1-.83.71,25.16,25.16,0,0,1-8.26,0,1,1,0,0,1-1-.81c-.35-1.18-.83-2.33-1.23-3.5a.89.89,0,0,0-.65-.67,1.53,1.53,0,0,1-.53-.2,2.61,2.61,0,0,0-3.14.09c-.77.46-1.63.78-2.44,1.18a.66.66,0,0,1-.77-.07,25.28,25.28,0,0,1-6.15-6.23.67.67,0,0,1-.07-.77c.59-1.22,1.14-2.46,1.76-3.67a1.65,1.65,0,0,0,0-1.27,2.66,2.66,0,0,0-2.2-2.08c-1-.25-1.93-.68-2.9-1a.65.65,0,0,1-.5-.58,24.65,24.65,0,0,1,0-8.9c.06-.34.25-.41.5-.5,1.3-.46,2.6-.94,3.91-1.38a1.39,1.39,0,0,0,.84-.77,2.71,2.71,0,0,0-.08-3c-.55-.89-.92-1.89-1.39-2.82A.7.7,0,0,1,4.78,11a25.44,25.44,0,0,1,6.14-6.15.77.77,0,0,1,.9-.08c1.17.58,2.37,1.12,3.54,1.7a1.18,1.18,0,0,0,.94,0A3.41,3.41,0,0,0,19,3.5c.09-.49.4-.93.48-1.42.16-.92.7-1.22,1.59-1.33a27.15,27.15,0,0,1,8.05.11.65.65,0,0,1,.59.5c.43,1.26.88,2.51,1.31,3.77a.84.84,0,0,0,.6.63,1.66,1.66,0,0,1,.6.22,2.55,2.55,0,0,0,3.14-.13c.3-.19.67-.27,1-.48,1.28-.93,2.35-.74,3.54.31A30.7,30.7,0,0,1,44.78,11C44.86,11.07,44.92,11.2,45,11.3ZM24.8,30.84a6.08,6.08,0,1,0-6.09-6.05A6.11,6.11,0,0,0,24.8,30.84Z"/></g><path class="cls-2" d="M8.6,15c.56-1,.44-1.47-.19-2.49S7.5,10.66,7,9.72A.7.7,0,0,1,7.1,8.9,25.91,25.91,0,0,1,8.89,6.68a24.76,24.76,0,0,0-4,4.43.68.68,0,0,0-.08.82c.47.94.84,1.93,1.38,2.82.4.65.12,2.35,0,3,.33-.12,1.17-1.2,1.42-1.43A4.77,4.77,0,0,0,8.6,15Z"/><path class="cls-2" d="M23,46.66a1.05,1.05,0,0,1-1-.81c-.35-1.19-.83-2.33-1.23-3.5a.92.92,0,0,0-.65-.68,1.62,1.62,0,0,1-.53-.2,2.58,2.58,0,0,0-3.13.1c-.78.45-1.64.77-2.45,1.17a.63.63,0,0,1-.76-.06,25.36,25.36,0,0,1-6.16-6.24A.65.65,0,0,1,7,35.68c.6-1.22,1.15-2.46,1.76-3.67a1.67,1.67,0,0,0,.05-1.28,2.65,2.65,0,0,0-2.2-2.07c-1-.25-1.93-.68-2.9-1a.63.63,0,0,1-.5-.59,24.17,24.17,0,0,1-.16-7.73l-1.52.54c-.26.09-.45.17-.51.5a24.65,24.65,0,0,0,0,8.9.64.64,0,0,0,.5.59c1,.32,1.91.75,2.9,1a2.65,2.65,0,0,1,2.2,2.07,1.67,1.67,0,0,1-.05,1.28C6,35.43,5.4,36.67,4.8,37.89a.65.65,0,0,0,.07.76A25.36,25.36,0,0,0,11,44.89a.65.65,0,0,0,.77.06c.8-.4,1.66-.72,2.44-1.18a2.6,2.6,0,0,1,3.13-.09,1.62,1.62,0,0,0,.53.2.92.92,0,0,1,.65.68c.4,1.17.88,2.31,1.23,3.5a1.05,1.05,0,0,0,1,.81,25.44,25.44,0,0,0,8.26,0,.87.87,0,0,0,.83-.7c.13-.47.32-.92.48-1.38A25.23,25.23,0,0,1,23,46.66Z"/><path class="cls-2" d="M25.92,17.85a6.13,6.13,0,0,0-5.27,3,5.8,5.8,0,0,1,3.06-.84,6.14,6.14,0,0,1,6,6.1,6,6,0,0,1-.83,3,6.06,6.06,0,0,0-3-11.32Z"/><path class="cls-2" d="M40.17,42.76C39,42.19,37.75,41.63,36.56,41a.83.83,0,0,0-.93,0c-.13.09-.31.12-.45.2C34,41.88,33,42.7,32.9,43.47l.07,0a1.22,1.22,0,0,0,.45-.2.83.83,0,0,1,.93,0c1.19.59,2.4,1.15,3.61,1.72a.6.6,0,0,0,.71,0,29.19,29.19,0,0,0,4.59-4.15,26.14,26.14,0,0,1-2.38,1.94A.6.6,0,0,1,40.17,42.76Z"/><polygon class="cls-3" points="22.12 12.29 18.75 13.67 16.07 8.31 20.54 6.64 22.12 12.29"/><polygon class="cls-3" points="23.41 17.39 21.19 18.29 19.48 14.91 22.42 13.81 23.41 17.39"/><polygon class="cls-3" points="28.67 37.04 31.89 35.33 35.09 40.39 30.81 42.51 28.67 37.04"/><polygon class="cls-3" points="26.88 32.1 28.99 30.98 31.03 34.17 28.22 35.56 26.88 32.1"/></g></g></svg>