<svg xmlns="http://www.w3.org/2000/svg" viewBox="0 0 190.44 195.67"><defs><style>.cls-1{fill:#ffeed5;stroke:#b56743;stroke-miterlimit:10;}.cls-2{fill:#feb938;}</style></defs><title>Asset 13</title><g id="Layer_2" data-name="Layer 2"><g id="Layer_1-2" data-name="Layer 1"><path class="cls-1" d="M.56,93.72c1-28.53,8.49-56.3,28.45-73.29C46.27,5.75,74.21-.24,98.45.57c28.27,1,50.82,17.53,67.5,38.1,14.17,17.48,24.76,37,23.94,61.39-.5,14.94.05,26.62-6.34,39-7.08,13.77-21.25,28.62-34.1,36.75C132.88,186.31,111.1,186.61,92,193.2c-24.78,8.56-49.45-12.45-66-30.45A96.9,96.9,0,0,1,.56,93.72Z"/><path class="cls-2" d="M94.37,97.36c-3.79,1.85-9.21,8.64-11.44,11.58C79.66,113.23,75,121.26,66.5,132.3S46.25,157.85,46,164.14,61.71,175.78,72.27,178s12,4.6,13.68-9.82c1.59-13.19,6.73-51,8.86-65.16C95,101.6,95.67,96.73,94.37,97.36Z"/><path class="cls-2" d="M75.32,111.83c5.13-3.61,19.85-20.5,13.63-14.65C87,99,69.72,111,61.51,113.25S25.34,128.41,20.21,132s-.94,9.41,9.35,19.82S42,155.4,45.87,150.49,70.2,115.43,75.32,111.83Z"/><path class="cls-2" d="M91.61,86.36c2.33,5.11,5.89-14.07,6.79-28.31.83-13.19,4.14-30.28,5-36.54s3.37-7.44-5.27-10.88-23.9,3.61-29,5.95,4.37,19,4.37,19S89.73,82.24,91.61,86.36Z"/><path class="cls-2" d="M46.49,57.36C61.78,68,92.23,92.88,89.33,85.86c-4-9.74-18-42.14-19.58-50.37s-3.91-14.19-9-13.1S41,28.65,35.63,39.17,31.2,46.78,46.49,57.36Z"/><path class="cls-2" d="M98.64,104.25c-3.25-6.86-5.2,32.59-7.61,51.11s-5.12,21,6.24,24,25-4.56,29.23-7.6,1.26-12.45-3.75-19.16S103.15,113.77,98.64,104.25Z"/><path class="cls-2" d="M15.6,126.4c1,2.55,16.59-3.22,23.39-7.19s29.79-11.38,33.25-15,19-8.69,14.94-10.2c-2.47-.92-5.42,0-10.84.06s-22.05-1.79-40.4-2S15.68,86.75,13,98.62,14.65,123.85,15.6,126.4Z"/><path class="cls-2" d="M110.81,73.58c-.81,4.94-13.69,17.73-9.57,16.77,2.52-.58,4.41-3,8.82-6s19-10.59,34.07-20.47,19.46-6.69,15.13-18-12.63-13.31-14.81-14.91-12.89,9.79-16.27,16.82S111.62,68.63,110.81,73.58Z"/><path class="cls-2" d="M21.76,85.91c5.8,1,27.45,2.18,36,3.51S78.52,91,87.07,91.24c3.12.11-16.91-12.1-21.78-16S32.53,56.86,29.08,54.05C23.9,49.84,17.4,69.76,16.9,72.27S16,84.87,21.76,85.91Z"/><path class="cls-2" d="M148,131.17s-43-28.67-46.85-31.06c-4.75-3,4.31,13,11.71,24s15.18,29.73,17.91,35.43,1.26,8.07,10.36,6.15,18-16.25,20.93-21S148,131.17,148,131.17Z"/><path class="cls-2" d="M97,86.54c-1,5.53,10.11-14.08,17.52-25s18.11-28.17,22.37-32.82-.77-4.73-7.12-11.56c-4-4.33-14.43-1.75-19.93-2.77S104.5,37.7,104.5,37.7,97.84,82.08,97,86.54Z"/><path class="cls-2" d="M154.58,99.38C136,99,97.07,92.94,103.33,97.19c8.69,5.9,32.36,22,39.49,26.34,19.7,12,21.44,12.41,25.05,8.71s8.52-11.2,7.23-22.94S173.14,99.74,154.58,99.38Z"/><path class="cls-2" d="M127.3,78.37c-7.83,3.6-18.2,10.24-25.49,14.74-2.67,1.64,20.74.73,27,1.32s37.4-2.85,41.81-2.42c6.63.64,1.15-19.58.2-22s-6.12-11-11.53-8.69S135.13,74.77,127.3,78.37Z"/></g></g></svg>