<svg xmlns="http://www.w3.org/2000/svg" viewBox="0 0 45.83 50.74"><defs><style>.cls-1{fill:#feb938;stroke:#b56743;stroke-miterlimit:10;}.cls-2{fill:#b56743;}.cls-3{fill:#fff;}</style></defs><title>Asset 17</title><g id="Layer_2" data-name="Layer 2"><g id="Layer_1-2" data-name="Layer 1"><path class="cls-1" d="M39,11.71a21.25,21.25,0,0,0-9.54-5.52v-5a.59.59,0,0,0-1-.49l-4.6,4.43L18.84,10a.69.69,0,0,0,0,1l5.07,4.89,4.6,4.43a.59.59,0,0,0,1-.49v-3.9a12,12,0,0,1,3.1,2.26,12.38,12.38,0,1,1-17.51,0L8.64,11.71a21.49,21.49,0,1,0,30.39,0Z"/><path class="cls-2" d="M8.62,42.12A21.48,21.48,0,0,1,6.49,14.25l-.2-.19A21.49,21.49,0,1,0,36.68,44.44c.4-.39.75-.8,1.11-1.22A21.48,21.48,0,0,1,8.62,42.12Z"/><path class="cls-2" d="M18.82,11c-.2-.19-.61-.86-.52-1.11L16.13,12a.68.68,0,0,0,0,1l5.44,5.26,4.59,4.43c.38.37.63.51,1.33-.12l1.73-1.62-5.33-5Z"/><path class="cls-2" d="M32.57,18.17a12.69,12.69,0,0,0-3.1-2.26v3.88a10.27,10.27,0,0,1,.77.71,12.37,12.37,0,0,1,1.08,16.25,13.88,13.88,0,0,0,1.25-1.07A12.39,12.39,0,0,0,32.57,18.17Z"/><path class="cls-3" d="M28.7,40.14a7.39,7.39,0,0,1-3.05.67l1.06,5.53a13.3,13.3,0,0,0,4.34-1.15Z"/><path class="cls-3" d="M11,20.68a7.55,7.55,0,0,1,1.85-2.51L8.38,14.71a13.32,13.32,0,0,0-2.51,3.72Z"/></g></g></svg>